<?xml version="1.0" encoding="utf-8"?>
<svg xmlns:xlink="http://www.w3.org/1999/xlink" xmlns="http://www.w3.org/2000/svg" id="Layer_1" x="0" y="0" enable-background="new 0 0 160 60" version="1.1" viewBox="0 0 160 60" xml:space="preserve">
  <defs>
    <path id="SVGID_1_" d="M1 2h158v56H1z"/>
  </defs>
  <clipPath id="SVGID_2_">
    <use overflow="visible" xlink:href="#SVGID_1_"/>
  </clipPath>
  <path d="M88.0266724 28.3997498L105.2721481 18.39328c1.5985718-1.1912479.7992783-1.9965458-.4109344-1.9965458v-.3972673h12.4317474v.3972673c-2.0004578.3968048-4.0099411 1.2024727-5.6130219 2.4050369l-15.642395 8.7927742 18.0537949 14.0000248c1.6030579.8056679 2.799736 2.0081367 4.0144501 2.0081367v.3972702h-12.4362564L88.0266724 29.9994907v10.8010044c0 1.9970093.7992783 2.8022118 2.799736 2.8022118v.3972702H77.1934967v-.3972702c2.0094833 0 2.8087692-.8052025 2.8087692-2.8022118V19.1989479c0-1.599741-.7992859-2.8022137-2.8087692-2.8022137v-.3972673h13.6329117v.3972673c-2.0004578 0-2.799736 1.2024727-2.799736 2.8022137v9.2008019zM159.0045319 36.0012741c0 4.799221-4.4118347 7.998703-15.2450104 7.998703h-21.2464066v-.3972702c1.6030807 0 2.804245-.8052025 2.804245-2.8022118V19.1989479c0-1.599741-1.2011642-2.8022137-2.804245-2.8022137v-.3972673h22.4566116c9.2255707 0 12.4362335 3.199481 12.4362335 6.3985891 0 4.799221-4.8137207 6.398962-9.6365204 6.7962303 4.8227998 0 11.2350923 1.599741 11.2350923 6.8069878zm-10.0203553-12.4002819c0-4.0052395-4.4118347-4.4020443-9.2255859-4.4020443-2.0095062 0-4.4118347 0-6.8187256.3968048v7.9987926s2.8087921.4079361 4.8092194.4079361c9.2210846-.407936 11.2350921-1.2024726 11.2350921-4.4014892zm-7.2251129 17.1995029c4.0144501 0 8.8236694-.4084892 8.8236694-4.799221 0-6.0017834-10.0203552-5.2072468-17.642868-4.7993126v7.5903015c0 .8057594 1.1966553 2.0082321 2.8087921 2.0082321h6.0104065z" class="st0"/>
  <path fill="#e4032e" d="M.9888874 1.9989797h56.5592194V29.999489H.9888874z" clip-path="url(#SVGID_2_)"/>
  <path d="M.9888874 29.9994907h56.5592194V58H.9888874z" class="st0"/>
  <path fill="#fff" d="M13.0226088 29.9994907h32.4900513v2.802305H13.0226088z" clip-path="url(#SVGID_2_)"/>
</svg>