<?xml version="1.0" encoding="UTF-8"?>
<svg width="158px" height="60px" viewBox="0 0 158 60" version="1.1" xmlns="http://www.w3.org/2000/svg" xmlns:xlink="http://www.w3.org/1999/xlink">
    <g id="Logo/LBB" stroke="none" stroke-width="1" fill="none" fill-rule="evenodd">
        <g id="LBB-Logo" fill-rule="nonzero">
            <polyline id="path7674" fill="#EA1A25" points="0 60 13.3346517 1 17 1 3.66534151 60 0 60"></polyline>
            <polyline id="path7684" fill="#EA1A25" points="11.8919844 60 6 60 19.0859375 1 25 1 11.8919844 60"></polyline>
            <polyline id="path7694" fill="#EA1A25" points="28.542674 1 38 1 24.7056007 60 15 60 28.542674 1"></polyline>
            <polyline id="path7704" fill="#EA1A25" points="41.3443108 1 55 1 42.1227312 60 28 60 41.3443108 1"></polyline>
            <polyline id="path7732" fill="#211D1E" points="62.0497334 0 54 37 78.5952056 37 80 29.7851774 63.8336119 29.7851774 70.3224751 0 62.0497334 0"></polyline>
            <path d="M130.626628,0 L148.385435,0 C153.198784,0 157.682435,2.21409164 157.990148,8.38672529 C158.209935,12.8820099 154.715305,16.6839946 151.198713,17.5338441 C154.627387,18.5402505 155.704349,20.7878993 155.704349,24.4333272 C155.704349,31.9567751 149.989878,37 142.055564,37 L123,37 L130.626628,0 Z M135.659762,14.5817158 L143.132526,14.5817158 C147.308472,14.8053677 149.901978,13.418764 149.989878,10.3100767 C150.077799,6.79883836 148.011793,6.35154122 145.484242,6.35154122 L137.330141,6.35154122 L135.659762,14.5817158 Z M132.450856,29.7851774 L139.857691,29.7851774 C144.12157,29.7851774 147.088704,29.0874009 147.857955,25.6745607 C148.165648,24.2790078 147.704104,20.5530653 141.901715,20.7096176 L134.297076,20.7096176 L132.450856,29.7851774 L132.450856,29.7851774 Z" id="path7734" fill="#211D1E"></path>
            <path d="M89.6266397,0 L107.385495,0 C112.176864,0 116.660535,2.21409164 116.990205,8.38672529 C117.209999,12.8820099 113.693398,16.6839946 110.198774,17.5338441 C113.627463,18.5402505 114.704427,20.7878993 114.704427,24.4333272 C114.704427,31.9567751 108.989943,37 101.055589,37 L82,37 L89.6266397,0 Z M94.6378024,14.5817158 L102.110591,14.5817158 C106.30853,14.8053677 108.902022,13.418764 108.989943,10.3100767 C109.055878,6.79883836 106.989869,6.35154122 104.484289,6.35154122 L96.3301684,6.35154122 L94.6378024,14.5817158 Z M91.4508787,29.7851774 L98.835742,29.7851774 C103.099617,29.7851774 106.088737,29.0874009 106.836011,25.6745607 C107.143719,24.2790078 106.682173,20.5530653 100.901753,20.7096176 L93.2751133,20.7096176 L91.4508787,29.7851774 L91.4508787,29.7851774 Z" id="path7736" fill="#211D1E"></path>
        </g>
    </g>
</svg>