<svg id="Warstwa_1" data-name="Warstwa 1" xmlns="http://www.w3.org/2000/svg" viewBox="0 0 179.31 27.32"><defs><style>.cls-1,.cls-2{fill:#ee202e;}.cls-1{fill-rule:evenodd;}</style></defs><title>64</title><path class="cls-1" d="M35,19.91c0,3.12-1.85,5.31-4.52,5.31s-4.66-2-4.66-5.31c.14-3.11,1.86-5.3,4.66-5.3S35,16.8,35,19.91Zm3.76,0a8.35,8.35,0,1,0-8.42,8.42,8.36,8.36,0,0,0,8.42-8.42Z" transform="translate(-7.06 -7.34)"/><polygon class="cls-1" points="42.97 20.17 39.66 27.32 35.73 27.32 39.03 20.17 31.39 4.3 35.81 4.3 40.91 16.42 46.16 4.3 50.77 4.3 42.97 20.17 42.97 20.17"/><path class="cls-1" d="M70.17,19.91c0,3.12-1.85,5.31-4.52,5.31S61,23.2,61,19.91c.14-3.11,1.85-5.3,4.66-5.3s4.52,2.19,4.52,5.3Zm3.76,0a8.35,8.35,0,1,0-8.42,8.42,8.36,8.36,0,0,0,8.42-8.42Z" transform="translate(-7.06 -7.34)"/><path class="cls-1" d="M99.87,20.4c0,3.11-1.86,5.3-4.52,5.3s-4.66-2-4.66-5.3c.14-3.12,1.85-5.31,4.66-5.31s4.52,2.19,4.52,5.31Zm3.76,0V12h-3.29v1.7a4.84,4.84,0,0,0-.46-.33A8.13,8.13,0,0,0,95.35,12a8.42,8.42,0,0,0-8.42,8.56,8.33,8.33,0,0,0,8.28,8.28,5.89,5.89,0,0,0,4.1-1.9l.49-.42.07-.08v1.77l3.76,0V20.4Z" transform="translate(-7.06 -7.34)"/><polygon class="cls-1" points="17.89 3.93 11.23 3.93 11.23 21 6.44 21 6.44 3.93 0 3.93 0 0 17.89 0 17.89 3.93 17.89 3.93"/><polygon class="cls-1" points="79.87 7.91 75.31 7.91 75.31 20.77 72.04 20.77 72.04 7.91 67.64 7.91 67.64 4.76 72.11 4.76 72.11 0.57 75.33 0.57 75.36 4.76 79.87 4.76 79.87 7.1 79.87 7.91"/><path class="cls-1" d="M145.08,19.91c0,3.12-1.85,5.31-4.52,5.31s-4.66-2-4.66-5.31c.14-3.11,1.85-5.3,4.66-5.3s4.52,2.19,4.52,5.3Zm3.76,0V11.49h-3.29V13.2l-.47-.34a8.13,8.13,0,0,0-4.52-1.37,8.42,8.42,0,0,0-8.42,8.56,8.33,8.33,0,0,0,8.28,8.28,5.9,5.9,0,0,0,4.1-1.89s.27-.25.49-.43a.44.44,0,0,0,.07-.08V27.7l3.76,0V19.91Z" transform="translate(-7.06 -7.34)"/><path class="cls-1" d="M151.89,21.92V11.49h3.37a14.44,14.44,0,0,0,0,1.62,7.27,7.27,0,0,1,4.84-1.62c3.9,0,7.1,1.63,7.1,5.81V27.7h-3.51l0-10.4c0-1.88-1.63-2.9-3.55-2.9-1.28,0-3.79.39-4.11,2.32a18,18,0,0,0-.1,2v9h-4Z" transform="translate(-7.06 -7.34)"/><polygon class="cls-1" points="167.17 13.01 167.16 20.36 163.95 20.4 163.92 0.52 167.16 0.52 167.17 11.24 168.38 11.21 174.19 4.69 178.26 4.69 172.05 12.26 179.31 20.36 175.09 20.36 168.57 12.98 167.17 13.01"/><path class="cls-2" d="M114.07,27.7V7.86h7.59a10.33,10.33,0,0,1,5.49,1.26,3.76,3.76,0,0,1,2,3.28A4.21,4.21,0,0,1,128,15.33a6.4,6.4,0,0,1-3.19,1.77v.06a6.84,6.84,0,0,1,3.95,1.51A4.2,4.2,0,0,1,130.26,22a4.73,4.73,0,0,1-2.42,4.12,11,11,0,0,1-6.1,1.58Zm4-17.2v5.65h2.57a5.63,5.63,0,0,0,3.24-.81A2.61,2.61,0,0,0,125,13.05q0-2.55-4.1-2.55Zm0,8.29v6.28h3.39a5.84,5.84,0,0,0,3.42-.85A2.71,2.71,0,0,0,126,21.87c0-2.05-1.71-3.08-5.15-3.08Z" transform="translate(-7.06 -7.34)"/></svg>