<svg id="Warstwa_1" data-name="Warstwa 1" xmlns="http://www.w3.org/2000/svg" xmlns:xlink="http://www.w3.org/1999/xlink" viewBox="0 0 49.21 42"><defs><style>.cls-1{fill:url(#Gradient_bez_nazwy_2);}.cls-2{fill:#f9f9fa;fill-rule:evenodd;}</style><linearGradient id="Gradient_bez_nazwy_2" x1="70.92" y1="16.16" x2="125.82" y2="25.84" gradientTransform="matrix(1, 0, 0, -1, -73.77, 42)" gradientUnits="userSpaceOnUse"><stop offset="0" stop-color="#4fbbb1"/><stop offset="0.01" stop-color="#4ebaad"/><stop offset="0.09" stop-color="#44ad8d"/><stop offset="0.17" stop-color="#3ba374"/><stop offset="0.25" stop-color="#349d60"/><stop offset="0.33" stop-color="#2e9853"/><stop offset="0.42" stop-color="#2a964d"/><stop offset="0.5" stop-color="#28954b"/><stop offset="0.56" stop-color="#25895a"/><stop offset="0.66" stop-color="#207a6b"/><stop offset="0.76" stop-color="#1d6f74"/><stop offset="0.85" stop-color="#1c6879"/><stop offset="0.93" stop-color="#1b637d"/><stop offset="1" stop-color="#1b627e"/></linearGradient></defs><title>28 Boś Bank</title><rect class="cls-1" width="49.21" height="42"/><path class="cls-2" d="M81.37,32.68h.45c.65,0,.83.06.83.42s-.12.39-.6.39h-.68Zm0-1.51h.57c.44,0,.53.12.53.36s-.15.38-.47.38h-.63Zm-1.51-1v4.36h2.25c1.19,0,1.9-.32,1.93-1.27a1,1,0,0,0-.77-1,1.19,1.19,0,0,0,.6-1c0-.74-.66-1.1-1.82-1.1Z" transform="translate(-73.77 0)"/><path class="cls-2" d="M92.34,33.15l.45-1.54.47,1.54ZM92,30.27l-1.64,4.37h1.46L92,34H93.5l.18.6h1.48l-1.6-4.37Z" transform="translate(-73.77 0)"/><polygon class="cls-2" points="28.17 30.2 28.17 34.56 29.59 34.56 29.59 33.2 29.54 32.19 31.17 34.56 32.56 34.56 32.56 30.2 31.14 30.2 31.14 31.62 31.2 32.6 29.57 30.2 28.17 30.2"/><polygon class="cls-2" points="39.84 30.14 39.84 34.51 41.32 34.51 41.32 33.14 41.68 32.79 42.78 34.51 44.56 34.51 42.72 31.81 44.38 30.14 42.66 30.14 41.32 31.57 41.32 30.14 39.84 30.14"/><path class="cls-2" d="M117.47,11.35a18.26,18.26,0,0,0-3-.34,6.73,6.73,0,0,0-3.34.67,3.11,3.11,0,0,0-1.5,2.17,3,3,0,0,0,.59,1.67,10.55,10.55,0,0,0,1,1.08c.33.34,2.67,2,2.92,2.26a2.24,2.24,0,0,1,.92,1.58,1.33,1.33,0,0,1-.67.92,4.38,4.38,0,0,1-1.75.33,4.72,4.72,0,0,1-3.17-.91l.41,2.42a17.79,17.79,0,0,0,3.67.58,9.29,9.29,0,0,0,2.59-.42,3.39,3.39,0,0,0,1.59-1.08,2.74,2.74,0,0,0,.66-1.59,3.06,3.06,0,0,0-.91-2.17l-.76-.75c-.41-.25-2-1.5-2.42-1.75l-1-.75a1.66,1.66,0,0,1-.5-1.17,1,1,0,0,1,.59-.92,4.4,4.4,0,0,1,1.75-.25,7.32,7.32,0,0,1,2.67.5Z" transform="translate(-73.77 0)"/><polygon class="cls-2" points="40.03 9.18 39.28 10.68 40.86 10.68 42.2 9.18 40.03 9.18"/><path class="cls-2" d="M98.86,25.37a8.33,8.33,0,0,0,8.43-8,8.4,8.4,0,0,0-16.78,0,8.2,8.2,0,0,0,8.35,8m-10.51-8a10.52,10.52,0,0,1,21,0,10.52,10.52,0,0,1-21,0" transform="translate(-73.77 0)"/><path class="cls-2" d="M95.35,23.45c.5-.42,1.67-1.09,1.92-2.09.09-.92-2.33-.83-2.83-.33-.17-.67-.17-1.59-1.42-1.25-.09-.92-.09-1.42-.92-2,2.17-.16,2.25-1,.5-2.92,1-.16,1-.33.75-1.67A1.59,1.59,0,0,0,95.6,13c.09-.17.17-.25.25-.42,1.34,2,2.59,1.75,2.09-.33a.9.9,0,0,0,1.34-.34.3.3,0,0,0,.08-.25c.5.25.92,0,1.33-.58A1.46,1.46,0,0,0,102,12.52c-.42.66.17,1,.58,1.08-1.75,2.09-.58,2.84,1.34,1.17-.17,1.17.08,1.42,1.58,1.42-.58.83-1,1.5-.33,2.33-1.09.34-3.84,1.17-.92,2.34-.83.25-1.25.92-1.17,1.34-1.08-.51-1.67.08-1.5,1.08a6.12,6.12,0,0,1-3.34-1.67c-.16-.17-.41-.25-.5-.08-.5,1.08-.83,1.33-1.33,2.25a1.85,1.85,0,0,0-1.09-.33" transform="translate(-73.77 0)"/><path class="cls-2" d="M82.92,16.27a2.18,2.18,0,0,0,1.34-.58,1.88,1.88,0,0,0,.5-1.25,1.36,1.36,0,0,0-.5-1.09,2.55,2.55,0,0,0-1.34-.42H80.84v3.42Zm.42,5.59a2.36,2.36,0,0,0,1.58-.58,1.55,1.55,0,0,0,.42-1.34,2,2,0,0,0-.42-1.25,2.57,2.57,0,0,0-1.58-.5h-2.5v3.59h2.5ZM78.42,11.1h4.92a4.09,4.09,0,0,1,2,.5,2.53,2.53,0,0,1,1.09,1A2.82,2.82,0,0,1,86.84,14a3.59,3.59,0,0,1-.33,1.58A2.82,2.82,0,0,1,84.84,17a3.25,3.25,0,0,1,2.5,1.5,2.83,2.83,0,0,1,.42,1.42,5.07,5.07,0,0,1-.17,1.59,2.21,2.21,0,0,1-.75,1,5,5,0,0,1-1.25.75,6.78,6.78,0,0,1-1.83.25H78.42Z" transform="translate(-73.77 0)"/></svg>