<svg id="Warstwa_1" data-name="Warstwa 1" xmlns="http://www.w3.org/2000/svg" viewBox="0 0 141.75 31.92"><defs><style>.cls-1{fill:#8dad3e;}.cls-2{fill:#378ecd;}</style></defs><title>87</title><path class="cls-1" d="M30,14.13a2,2,0,0,1,1.54.78,1.78,1.78,0,0,1-.44,2.49,1.71,1.71,0,0,1-.78.31c-.1,0-3.45.16-3.56.2a9.22,9.22,0,0,0-2.92.69,9,9,0,0,0-3.21,2.2,9.29,9.29,0,0,0-2.44,4.74,5.49,5.49,0,0,0-.13,1.34.62.62,0,0,0,0,.33v.31a.62.62,0,0,0,0,.33v.32a.54.54,0,0,0-.05.33v.32a.58.58,0,0,0,0,.32v.38a.62.62,0,0,0,0,.33,2.75,2.75,0,0,1-.46,1.41,1.79,1.79,0,0,1-2.52.26,2.09,2.09,0,0,1-.41-.48,2.75,2.75,0,0,1-.51-1.16.62.62,0,0,0,0-.33v-.32a.58.58,0,0,0,0-.32v-.32a.62.62,0,0,0,0-.33v-.32a.62.62,0,0,0,0-.33V27.3a.86.86,0,0,0,0-.39v-.26a.7.7,0,0,0,0-.32,9.39,9.39,0,0,0-5.84-7.45,10.24,10.24,0,0,0-2.42-.73,2,2,0,0,0-.69-.08A.62.62,0,0,0,4.79,18H4.47A.54.54,0,0,0,4.14,18H3.82a.58.58,0,0,0-.32,0H3.18a.86.86,0,0,0-.39-.09H2.48a.78.78,0,0,0-.34-.05H1.83a.62.62,0,0,0-.33,0A1.71,1.71,0,0,1,0,16.15v-.32a1.7,1.7,0,0,1,1.66-1.6h.23a.62.62,0,0,0,.33-.05h.31a.65.65,0,0,0,.34,0h.37a.62.62,0,0,0,.33,0h.32a.51.51,0,0,0,.32,0h.32a.62.62,0,0,0,.33,0h.32a.51.51,0,0,0,.32-.05,7.7,7.7,0,0,0,2.27-.55A9,9,0,0,0,10.39,12a9.9,9.9,0,0,0,2.14-2.51,9.75,9.75,0,0,0,1.14-3c.08-.39.1-.79.15-1.18a.65.65,0,0,0,0-.34V4.65a.62.62,0,0,0,0-.33V4a.86.86,0,0,0,0-.39V3.3a1,1,0,0,0,0-.34V2.28a.62.62,0,0,0,0-.33A2.19,2.19,0,0,1,14.49.68,1.74,1.74,0,0,1,15.69,0h.51a1.79,1.79,0,0,1,1.45,1.32c.05.25.09.5.12.76a.62.62,0,0,0,0,.33v.31a.66.66,0,0,0,.05.34v.31a.65.65,0,0,0,.05.39v.32a.62.62,0,0,0,0,.33v.31a.62.62,0,0,0,0,.33,8.11,8.11,0,0,0,.75,3.1,9.39,9.39,0,0,0,6.48,5.44,4.43,4.43,0,0,0,1.09.17l.33,0S29.81,14.13,30,14.13Z" transform="translate(0 0)"/><path class="cls-2" d="M54.73,24.15a.66.66,0,0,1-.66-.53V5.05c.14-.47.29-.59.78-.59h2.64c.58,0,.85.28.85.89v9.82c.5-.51.89-1.05,1.32-1.56.54-.67,1.09-1.33,1.64-2S62.43,10.24,63,9.54a1,1,0,0,1,.66-.38h7.25a.94.94,0,0,1,1,.64q1.78,4.25,3.58,8.48h0a3.66,3.66,0,0,0,.42-1c.34-.86.62-1.75.94-2.62l1-2.73c.33-.91.57-1.59.86-2.38a.65.65,0,0,1,.38-.4h3.28c.39.22.45.36.29.78-.86,2.29-1.74,4.58-2.61,6.87q-1.44,3.78-2.9,7.54A13.07,13.07,0,0,1,76,26.74a4.29,4.29,0,0,1-3.13,2.06.47.47,0,0,0-.33,0h-4c-.23,0-.42,0-.53-.26v-.45c.3-.84.6-1.67.91-2.51a.68.68,0,0,1,.58-.47H71a6.12,6.12,0,0,0,1.21,0,2.09,2.09,0,0,0,.56-.05A.89.89,0,0,0,73.49,24a.92.92,0,0,0-.09-.23c-.51-1.15-1-2.29-1.56-3.44s-1.13-2.57-1.7-3.86S69.08,14.14,68.55,13c-.28-.63-.56-1.26-.83-1.89a.71.71,0,0,0-.89-.46.73.73,0,0,0-.39.3c-.85,1.05-1.72,2.1-2.58,3.15a.69.69,0,0,0-.13.77c.39.87.77,1.75,1.16,2.63.88,2,1.77,3.92,2.64,5.89.19.41.1.6-.34.78H63.56c-.64,0-.77-.55-1-1-.47-1.08-.92-2.17-1.38-3.26-.25-.6-.5-1.2-.78-1.85-.37.43-.73.82-1.07,1.23s-.59.72-.9,1.08a.8.8,0,0,0-.13.22.76.76,0,0,0,0,.26v2.66a.74.74,0,0,1-.66.66Z" transform="translate(0 0)"/><path class="cls-1" d="M137.46,15.11a3.15,3.15,0,0,0-.48-1.39,1.84,1.84,0,0,0-1.53-.68h-.54a3.53,3.53,0,0,0-2,.55,2.66,2.66,0,0,0-.95,2c0,.1,0,.22,0,.32v7.57c-.15.5-.35.65-.85.65h-2.62c-.52,0-.82-.22-.82-.83V5.3c0-.62.21-.84.83-.84h2.61a.74.74,0,0,1,.83.64.61.61,0,0,1,0,.19v5.77c.12,0,.17,0,.21-.11a5,5,0,0,1,4.1-2.07,6.88,6.88,0,0,1,2.85.37,4,4,0,0,1,2.41,3c.1.4.14.81.21,1.22,0,.14,0,.28.05.41v9.85a.92.92,0,0,1-.94.51h-2.57a.79.79,0,0,1-.76-.75v-8A2,2,0,0,0,137.46,15.11Z" transform="translate(0 0)"/><path class="cls-1" d="M110.79,18.88v4.54c0,.67-.26.94-.93.94,0,0-1,0-1.06-.06a3.26,3.26,0,0,1-1-.31,2,2,0,0,1-.94-1.35c-.07-.27-.11-.56-.17-.86-.14,0-.17.15-.22.24a4.91,4.91,0,0,1-3,2.15,7.45,7.45,0,0,1-1.24.2,9.19,9.19,0,0,1-1.74,0,4.34,4.34,0,0,1-2.45-1,4.06,4.06,0,0,1-1.48-2.46c-.05-.24-.05-.49-.09-.73V19.11a4,4,0,0,1,1.07-2.49,4.4,4.4,0,0,1,1.48-1,8.44,8.44,0,0,1,2.92-.74s2.44,0,2.57,0l1.6.27c.41.07.4,0,.37-.41a2.78,2.78,0,0,0-.53-1.49,2.13,2.13,0,0,0-1.75-.93,15.4,15.4,0,0,0-1.69,0,25.15,25.15,0,0,0-3.8.65h-.45a.52.52,0,0,1-.42-.35c-.26-.65-.54-1.3-.78-2a.75.75,0,0,1,.4-1l.11,0a10.73,10.73,0,0,1,2-.53l2.33-.34c.13-.06,3.23-.05,3.42,0a10.33,10.33,0,0,1,2.63.59,4.42,4.42,0,0,1,2.59,2.92,9.08,9.08,0,0,1,.28,1.47C110.77,15.38,110.77,18.81,110.79,18.88Zm-7-1.29a5.63,5.63,0,0,0-2.3.39,1.31,1.31,0,0,0-.87,1.21A1.57,1.57,0,0,0,102,20.88h0a4.86,4.86,0,0,0,3-.49,2.43,2.43,0,0,0,1.35-2.25c0-.2-.07-.27-.25-.29C105.42,17.74,103.79,17.59,103.79,17.59Z" transform="translate(0 0)"/><path class="cls-2" d="M45.23,21H46.7a2,2,0,0,0,1.1-.24,1,1,0,0,0,.5-.72,1,1,0,0,0,0-.41,1.12,1.12,0,0,0-1-.83c-1-.21-2.07-.38-3.09-.59a12.31,12.31,0,0,1-3.09-.84,3.5,3.5,0,0,1-1.86-2.52,11.19,11.19,0,0,1-.1-2.14,4.1,4.1,0,0,1,2.25-3.09A7,7,0,0,1,44,8.85c1.18-.11,3.69,0,3.79-.08A11.14,11.14,0,0,1,51.5,9.88a.75.75,0,0,1,.47.95.73.73,0,0,1-.17.28c-.42.58-.82,1.17-1.23,1.75a.78.78,0,0,1-1.06.28,7.69,7.69,0,0,0-2.62-.68,17.18,17.18,0,0,0-2,0,2.29,2.29,0,0,0-1,.23.86.86,0,0,0-.49.8.94.94,0,0,0,.49.88,4.69,4.69,0,0,0,1.32.35,34.13,34.13,0,0,1,4.69.93,3.62,3.62,0,0,1,2.68,2.89,9.28,9.28,0,0,1,.05,1.73,4.47,4.47,0,0,1-.9,2.15,4.93,4.93,0,0,1-2.08,1.46,7.2,7.2,0,0,1-2,.47c-.11,0-3.83.07-4,0a11.58,11.58,0,0,1-4.07-1.19,7.85,7.85,0,0,1-1-.61.69.69,0,0,1-.22-.42v-.31a.94.94,0,0,1,.31-.51c.48-.43.89-.93,1.32-1.4a.88.88,0,0,1,1.1-.15,8.4,8.4,0,0,0,2.8,1.12,3.56,3.56,0,0,0,.92.11Z" transform="translate(0 0)"/><path class="cls-1" d="M117.67,12.55a.87.87,0,0,0-.63,1,1,1,0,0,0,.71.88,17.18,17.18,0,0,0,2,.38,24.79,24.79,0,0,1,4.08.91,3.47,3.47,0,0,1,2.38,3.16,5.13,5.13,0,0,1-.31,2.6,4.15,4.15,0,0,1-2,2.11,7.12,7.12,0,0,1-2.89.78l-.46.05h-2.68c-.12,0-.23,0-.34,0a12.06,12.06,0,0,1-3.91-1,6,6,0,0,1-1.35-.82.83.83,0,0,1-.06-1.08l.11-.12a19.14,19.14,0,0,0,1.4-1.46.78.78,0,0,1,.39-.25h.45a9.16,9.16,0,0,0,3.61,1.36c.2.15,3.18.1,3.59-.45a1.07,1.07,0,0,0-.12-1.51,1.37,1.37,0,0,0-.2-.13,9.77,9.77,0,0,0-1.6-.37c-.75-.11-1.5-.28-2.24-.42a18.31,18.31,0,0,1-2.07-.49,3.53,3.53,0,0,1-2.38-2.1A4.71,4.71,0,0,1,112.8,14V13a3.77,3.77,0,0,1,1.29-2.65,5.93,5.93,0,0,1,3.07-1.48l.47-.08h3.8a11.82,11.82,0,0,1,3.68,1.08c.64.33.74.71.33,1.31l-1.13,1.69a.85.85,0,0,1-1.14.38l-.12-.07a7.22,7.22,0,0,0-2.45-.68A10.66,10.66,0,0,0,117.67,12.55Z" transform="translate(0 0)"/><path class="cls-1" d="M82.32,15.82a8.49,8.49,0,0,1,1.43-4.09,6.18,6.18,0,0,1,4.41-2.85c.4-.07.81-.1,1.21-.15h1.22a11.77,11.77,0,0,1,4.69,1.21.66.66,0,0,1,.42.59.71.71,0,0,1-.1.47c-.45.65-.89,1.3-1.34,1.94a.78.78,0,0,1-1,.23,7.56,7.56,0,0,0-2.72-.75,5.45,5.45,0,0,0-1,0A3,3,0,0,0,87,14.56a3.4,3.4,0,0,0-.26,1.34c0,.15,0,1.15,0,1.3a3.54,3.54,0,0,0,2.42,3.44,4.69,4.69,0,0,0,1.4,0A6.12,6.12,0,0,0,93.1,20a.9.9,0,0,1,1.25.24l.05.09c.37.59.79,1.14,1.17,1.72a.7.7,0,0,1-.09,1,1,1,0,0,1-.17.1,10.12,10.12,0,0,1-3.42,1.16c-.41.07-.83.11-1.25.14H89.35a7.38,7.38,0,0,1-3-.67A6,6,0,0,1,84.17,22a8.56,8.56,0,0,1-1.28-2.13,7.81,7.81,0,0,1-.58-2.47Z" transform="translate(0 0)"/></svg>