<svg id="Warstwa_1" data-name="Warstwa 1" xmlns="http://www.w3.org/2000/svg" viewBox="0 0 80.92 36.51"><defs><style>.cls-1{fill:#e21e26;}.cls-2{fill:#fff;}</style></defs><title>4 Santander Przelew24</title><g id="g28952"><path id="path28954" class="cls-1" d="M13.16,9.89a2.9,2.9,0,0,0-.39-1.35l-2.12-3.7A2.53,2.53,0,0,1,10.31,4l-.09.16a2.94,2.94,0,0,0,0,2.95l1.7,3a3,3,0,0,1,0,3l-.09.15a3.19,3.19,0,0,0-.33-.89L9.93,9.53l-1-1.73a2.93,2.93,0,0,1-.34-.89l-.09.15a3,3,0,0,0,0,3h0l1.71,3a2.94,2.94,0,0,1,0,2.95l-.09.15a2.93,2.93,0,0,0-.34-.89L7.67,11.49a2.9,2.9,0,0,1-.39-1.6c-2.29.59-3.86,1.86-3.86,3.32,0,2,3.05,3.7,6.8,3.7s6.8-1.66,6.8-3.7c0-1.46-1.58-2.73-3.86-3.32m6.43,6.31a4.14,4.14,0,0,1,.24-1.26,5.88,5.88,0,0,0,2.34.49c1.19,0,1.85-.38,1.85-1.13s-.48-1.09-1.68-1.62l-.63-.28c-1.2-.52-2-1.2-2-2.55s1-2.39,3.08-2.39a6.87,6.87,0,0,1,2.34.37,5.41,5.41,0,0,1-.25,1.26,6.58,6.58,0,0,0-2.1-.37c-1.12,0-1.63.43-1.63,1.12s.5,1,1.4,1.43l.69.29c1.62.69,2.3,1.42,2.3,2.66,0,1.47-1.11,2.48-3.28,2.48a6.25,6.25,0,0,1-2.63-.49M32.39,10.1v6.37H31.12l-.07-.77a2,2,0,0,1-1.81.92c-1.68,0-2.81-1.22-2.81-3.37S27.63,9.72,30,9.72a7.11,7.11,0,0,1,2.42.36M31,15V11a6.77,6.77,0,0,0-1-.08c-1.46,0-2.13.9-2.13,2.33s.52,2.23,1.77,2.23A2.19,2.19,0,0,0,31,15m8.61-2.84v4.3H38.16V12.42c0-1-.33-1.5-1.74-1.5a6.8,6.8,0,0,0-1.1.09v5.45H33.9V10.08a12.06,12.06,0,0,1,2.53-.36c2.35,0,3.1.9,3.1,2.45m3.94,3.26a3.14,3.14,0,0,0,1.09-.2,9.61,9.61,0,0,1-.16,1.2,3.24,3.24,0,0,1-1.19.2A2,2,0,0,1,41,14.44V7.73a4.82,4.82,0,0,1,1.41-.21V9.94H44.6q0,.6-.12,1.2h-2.1v3.15c0,.83.41,1.15,1.09,1.15M51,10.09v6.38H49.75l-.08-.77a2,2,0,0,1-1.8.92c-1.69,0-2.81-1.22-2.81-3.37s1.2-3.53,3.56-3.53a7.11,7.11,0,0,1,2.42.36M49.63,15V11a6.77,6.77,0,0,0-1-.08c-1.45,0-2.13.9-2.13,2.33s.52,2.23,1.77,2.23A2.19,2.19,0,0,0,49.63,15m8.61-2.84v4.3H56.79V12.42c0-1-.33-1.5-1.74-1.5a8.32,8.32,0,0,0-1.11.1v5.45H52.53V10.08a12,12,0,0,1,2.53-.36c2.35,0,3.1.9,3.1,2.45M65.3,7.52v9H64L64,15.65a1.94,1.94,0,0,1-1.83,1c-1.69,0-2.82-1.22-2.82-3.37s1.23-3.5,3.59-3.5a5.19,5.19,0,0,1,1.05.1V7.71a4.1,4.1,0,0,1,1.39-.19M64,15V11.05a6.11,6.11,0,0,0-1.13-.13c-1.39,0-2.06.87-2.06,2.33,0,1.3.53,2.22,1.78,2.22A2.25,2.25,0,0,0,64,15m8.46-1.27H67.92A1.87,1.87,0,0,0,70,15.43a5.46,5.46,0,0,0,2.25-.49c-.05.38-.13.86-.21,1.27a5.1,5.1,0,0,1-2.07.41c-2.36,0-3.5-1.3-3.5-3.5,0-1.89.88-3.4,3.12-3.4a2.67,2.67,0,0,1,2.88,2.92,8,8,0,0,1-.08,1.09m-4.51-1.18h3.15a1.45,1.45,0,0,0-1.24-1.65,1.38,1.38,0,0,0-.29,0c-1,0-1.52.57-1.64,1.66m9.47-2.78a5.44,5.44,0,0,1-.13,1.2,9.42,9.42,0,0,0-1.06-.06,8,8,0,0,0-1.09.1v5.47H73.7v-6.4a8.63,8.63,0,0,1,2.41-.36c.41,0,.82,0,1.22,0" transform="translate(0.07 -3.95)"/></g><rect class="cls-1" y="17.66" width="80.92" height="18.85"/><path class="cls-2" d="M19.66,27.13a2.79,2.79,0,0,1,1.94.61,2.34,2.34,0,0,1,.64,1.76,2.41,2.41,0,0,1-.18,1,2.31,2.31,0,0,1-.51.76,2.34,2.34,0,0,1-.81.5,3.26,3.26,0,0,1-1.08.18H18.32v3.21H17.8v-8Zm0,4.3a2.46,2.46,0,0,0,.86-.14,1.93,1.93,0,0,0,.65-.41,1.8,1.8,0,0,0,.4-.61,1.88,1.88,0,0,0,.14-.77,1.85,1.85,0,0,0-.51-1.41,2.16,2.16,0,0,0-1.54-.5H18.32v3.87Z" transform="translate(0.07 -3.95)"/><path class="cls-2" d="M23.84,30.85a4.18,4.18,0,0,1,.27-.61,1.94,1.94,0,0,1,.35-.45,1.34,1.34,0,0,1,1-.39,1.66,1.66,0,0,1,.32,0,.81.81,0,0,1,.27.11l0,.37a.09.09,0,0,1-.09.1.73.73,0,0,1-.2-.05,1.69,1.69,0,0,0-.33,0,1.24,1.24,0,0,0-.53.12,1.28,1.28,0,0,0-.4.29,1.73,1.73,0,0,0-.32.49,4.26,4.26,0,0,0-.25.71v3.63h-.49V29.53h.26a.14.14,0,0,1,.12,0,.21.21,0,0,1,0,.13Z" transform="translate(0.07 -3.95)"/><path class="cls-2" d="M30.36,29.5v.22a.41.41,0,0,1-.07.22l-3.2,4.75h3.14v.42H26.49V34.9a.49.49,0,0,1,.08-.21l3.21-4.77H26.66V29.5Z" transform="translate(0.07 -3.95)"/><path class="cls-2" d="M31.63,32.08v.08a4.56,4.56,0,0,0,.13,1.11,2.36,2.36,0,0,0,.38.8,1.59,1.59,0,0,0,.6.49,1.74,1.74,0,0,0,.78.17,2.18,2.18,0,0,0,.67-.1,2.76,2.76,0,0,0,.47-.2l.31-.22a.32.32,0,0,1,.16-.09.14.14,0,0,1,.11.06l.13.18a1.38,1.38,0,0,1-.33.31,2,2,0,0,1-.45.26,3.27,3.27,0,0,1-.53.17,3.79,3.79,0,0,1-.58,0,2.06,2.06,0,0,1-.95-.17,2,2,0,0,1-.74-.58,2.6,2.6,0,0,1-.47-.94,4.19,4.19,0,0,1-.17-1.27,4.13,4.13,0,0,1,.15-1.11,2.62,2.62,0,0,1,.45-.88,2,2,0,0,1,.71-.58,2,2,0,0,1,1-.21,2,2,0,0,1,.8.16,1.81,1.81,0,0,1,.65.48,2.4,2.4,0,0,1,.42.77,3.11,3.11,0,0,1,.16,1.05.25.25,0,0,1,0,.17.15.15,0,0,1-.1,0ZM35,31.74a2.78,2.78,0,0,0-.11-.81,1.84,1.84,0,0,0-.34-.61,1.44,1.44,0,0,0-1.13-.51,1.75,1.75,0,0,0-.71.13,1.59,1.59,0,0,0-.54.39,2.37,2.37,0,0,0-.37.61,3.7,3.7,0,0,0-.18.8Z" transform="translate(0.07 -3.95)"/><path class="cls-2" d="M37.35,26.9v8.21h-.52V26.9Z" transform="translate(0.07 -3.95)"/><path class="cls-2" d="M39.25,32.08v.08a4.12,4.12,0,0,0,.14,1.11,2.11,2.11,0,0,0,.38.8,1.48,1.48,0,0,0,.59.49,1.74,1.74,0,0,0,.78.17,2.36,2.36,0,0,0,1.14-.3l.31-.22c.08-.06.12-.09.16-.09a.14.14,0,0,1,.11.06l.13.18a1.34,1.34,0,0,1-.32.31,3,3,0,0,1-.46.26,3.27,3.27,0,0,1-.53.17,3.66,3.66,0,0,1-.57,0,1.88,1.88,0,0,1-1.67-.75,3,3,0,0,1-.5-.94,4.92,4.92,0,0,1-.17-1.27,3.78,3.78,0,0,1,.17-1.11,2.62,2.62,0,0,1,.45-.88,2,2,0,0,1,.71-.58,2.24,2.24,0,0,1,1.78-.05,1.86,1.86,0,0,1,.64.48,2.42,2.42,0,0,1,.43.77,3.38,3.38,0,0,1,.15,1.05.26.26,0,0,1,0,.17.19.19,0,0,1-.1,0Zm3.41-.34a2.78,2.78,0,0,0-.11-.81,1.81,1.81,0,0,0-.33-.61,1.45,1.45,0,0,0-.5-.38,1.56,1.56,0,0,0-.64-.13,1.75,1.75,0,0,0-.71.13,1.55,1.55,0,0,0-.53.39,1.92,1.92,0,0,0-.37.61,3.21,3.21,0,0,0-.19.8Z" transform="translate(0.07 -3.95)"/><path class="cls-2" d="M51.15,29.5l-1.7,5.64h-.36Q49,35.14,49,35l-1.41-4.56a.24.24,0,0,0-.05-.17v-.16a2,2,0,0,1-.08.33L46,35a.11.11,0,0,1-.12.12h-.35l-1.7-5.64h.37a.18.18,0,0,1,.12.05.15.15,0,0,1,.06.09L45.65,34a2.44,2.44,0,0,0,.06.26,1,1,0,0,1,0,.24l.07-.24a.84.84,0,0,1,.07-.26l1.36-4.46a.15.15,0,0,1,.15-.13h.2c.07,0,.12.05.15.13L49.1,34a1,1,0,0,0,.07.25c0,.08,0,.16,0,.24a.43.43,0,0,1,.05-.24c0-.08,0-.16.06-.25l1.29-4.42a.26.26,0,0,1,.07-.1.25.25,0,0,1,.11,0Z" transform="translate(0.07 -3.95)"/><path class="cls-2" d="M56.51,34.6a.16.16,0,0,1,.13.06.19.19,0,0,1,0,.13v.32H52v-.19a.22.22,0,0,1,.08-.24l2.48-2.76.56-.66a5.06,5.06,0,0,0,.46-.65,3.08,3.08,0,0,0,.3-.7A2.45,2.45,0,0,0,56,29.2a2,2,0,0,0-.14-.76,1.58,1.58,0,0,0-.35-.53,1.52,1.52,0,0,0-.51-.32,2.1,2.1,0,0,0-.61-.09,1.5,1.5,0,0,0-.63.11,1.56,1.56,0,0,0-.52.32,1.64,1.64,0,0,0-.36.5,1.69,1.69,0,0,0-.21.62.27.27,0,0,1-.1.16.22.22,0,0,1-.16,0l-.25,0a2.94,2.94,0,0,1,.26-.92,2.24,2.24,0,0,1,.48-.7,1.91,1.91,0,0,1,.71-.42,2.34,2.34,0,0,1,.83-.15,2.12,2.12,0,0,1,.79.14,1.74,1.74,0,0,1,.71.4,2,2,0,0,1,.45.7,2.35,2.35,0,0,1,.17,1,2.71,2.71,0,0,1-.12.84,4.46,4.46,0,0,1-.34.74,6.85,6.85,0,0,1-.5.7c-.19.23-.4.45-.6.71l-2.28,2.55a1.36,1.36,0,0,1,.35-.07h.35Z" transform="translate(0.07 -3.95)"/><path class="cls-2" d="M63,32.39v.29a.12.12,0,0,1,0,.1.09.09,0,0,1-.1,0H61.66v2.29h-.43V32.82H57.68a.21.21,0,0,1-.06-.1l0-.27,3.66-5.3h.43v5.27Zm-1.76,0V27.77l-3.15,4.62Z" transform="translate(0.07 -3.95)"/></svg>