<svg id="Warstwa_1" data-name="Warstwa 1" xmlns="http://www.w3.org/2000/svg" xmlns:xlink="http://www.w3.org/1999/xlink" viewBox="0 0 92.26 38.01"><defs><style>.cls-1{fill:#23aa4a;}.cls-2{fill:#cf1e29;}.cls-3{fill:#f7941d;}.cls-4{fill:#ee3124;}.cls-5{fill:#1a1817;}.cls-6{fill:#047bc1;}.cls-7{fill:#fff;}.cls-8{fill:#231f20;}.cls-9{fill:#010101;}</style><symbol id="logo_mBank_MASS" data-name="logo mBank MASS" viewBox="0 0 737.01 283.46"><rect class="cls-1" x="556.84" width="180.17" height="283.46"/><rect class="cls-2" x="414.9" width="121.33" height="283.46"/><rect class="cls-3" x="238.26" width="176.64" height="283.46"/><rect class="cls-4" width="208.07" height="283.46"/><rect class="cls-5" x="208.07" width="30.2" height="283.46"/><rect class="cls-6" x="536.23" width="20.6" height="283.46"/><path class="cls-7" d="M391.69,208.45c-20.6,0-33.4-12-33.4-31.3,0-20,13.77-31.88,36.84-31.88A61.9,61.9,0,0,1,412.9,148l.38.12v-1.69c0-6.53-.91-9.88-3.49-12.8-2.8-3.17-7.86-4.77-15-4.77a61.61,61.61,0,0,0-27.43,6.81l-.83.42V117.6l.34-.15c8.7-4,20-6.16,31.93-6.16,14.93,0,25.61,3.24,32.65,9.89,5.73,5.34,8.39,13,8.39,24.09v39.52c0,3.67,1.11,5.16,3.82,5.16a15.28,15.28,0,0,0,7.11-2.37l1-.73-1,16-.21.15c-4.3,3-10.94,4.88-17.32,4.88-7.95,0-13.94-3.19-16.44-8.76l-.18-.4-.29.32C411,204.94,401.81,208.45,391.69,208.45Zm9-47.54c-10,0-15.67,5.5-15.67,15.09s5.08,14.91,13.94,14.91a14.48,14.48,0,0,0,10.67-4.21c2.39-2.59,3.67-6.48,3.67-11.27V163l-.19-.07A41.11,41.11,0,0,0,400.67,160.91Zm-178.74,47c-7.83,0-13.45-2.26-16.69-6.72-2.36-3.28-3.56-8.4-3.56-15.23v-36.3c0-5.9-.19-9.74-2.76-13.23-2.4-3.13-6.47-4.92-11.2-4.92a14.94,14.94,0,0,0-12,5.51c-2.63,3.5-3.7,8-3.7,15.69v54H145.54V149.66c0-5.91-.19-9.74-2.76-13.23-2.39-3.13-6.47-4.92-11.18-4.92a14.92,14.92,0,0,0-12,5.51c-2.63,3.5-3.7,8-3.7,15.69v54H89.41V132.08H78.33V113h27.11l4.34,11.21.31-.39c6.13-8,16.61-12.54,28.76-12.54,12.79,0,22.11,4,27.71,11.91l.21.3.23-.28c3.78-4.45,12.43-11.93,28-11.93,12.59,0,22.45,4.22,27.76,11.89,3.81,5.42,5.44,12.2,5.44,22.66v39c0,4.55,2.05,5.16,4.05,5.16a14.5,14.5,0,0,0,6.91-2.36l1-.73-.84,16L239,203A31.63,31.63,0,0,1,221.93,207.91Zm420.47,0c-10.13,0-16.36-3.88-22.25-13.83l-17-28.56H595v41.25H568.52V94.09H557.45V75H595v70.65h9.23L623.17,113h26.51l-24.38,41.8,18.15,30.07c2.31,3.84,4,5.07,7.16,5.07a12.74,12.74,0,0,0,7.11-2.37l1-.7-.84,16.52-.21.16C654.15,206.23,648.31,207.88,642.4,207.88Zm-119.69-1.14V149.66c0-5.79-.49-9.82-3-13.23-2.46-3.22-6.46-4.92-11.57-4.92-5.31,0-9.64,2-12.54,5.7-3.07,4-3.7,9.27-3.7,15.88v53.65H465.43V132.08H454.35V113h27.11l4.37,11.26.3-.37c6.65-8.13,17-12.61,29.13-12.61,11.08,0,20,3.16,25.8,9.15,5.64,6,8.16,13.79,8.16,25.21v61.09Zm-269.18,0V104.59H241.88V84.75h55.17c17.31,0,27.21,2.53,34.17,8.73,6.12,5.51,9.35,13.19,9.35,22.19,0,11-5.16,20.1-14.14,24.92l-.61.32.67.19c14,4.15,21.33,14.43,21.33,29.75,0,14.69-5.65,24.65-17.3,30.48-7.3,3.74-17.21,5.41-32.13,5.41Zm27.66-20h14.72c16.56,0,22.72-4.66,22.72-17.2,0-5.86-1.43-10-4.38-12.55-3.77-3.2-8.85-4.45-18.16-4.45h-14.9Zm0-51h12c8.06,0,12.6-1.18,15.65-4,2.65-2.47,3.83-6.18,3.83-12,0-3.43-.73-8.16-4.2-11.22-2.92-2.75-7.58-3.87-16.05-3.87H281.19Z"/></symbol></defs><title>25</title><use width="737.01" height="283.46" transform="translate(16.72 0) scale(0.07)" xlink:href="#logo_mBank_MASS"/><path class="cls-8" d="M61.57,39.48v.15a2,2,0,0,1-2.43-.06,2.08,2.08,0,0,1-.32-1.3V36c0-1-.18-1.64-1-1.63-.49,0-1.2.23-1.14,1.71V39.9H54.72V36c.06-1.14-.22-1.55-1-1.59a1.09,1.09,0,0,0-.94.48,2.36,2.36,0,0,0-.22,1.26V39.9H50.62V34.45h-.81V33.06h2l.32.82h0a2.49,2.49,0,0,1,2.1-.94,2.28,2.28,0,0,1,2.06.89,2.65,2.65,0,0,1,2.11-.89c1.26,0,2.51.61,2.37,2.74V38.2s0,.34.1.43.77-.17.77-.17Z" transform="translate(-49.81 -2.31)"/><path class="cls-9" d="M69.54,29.14H65.78v11H65v-11H61.27v-.86h8.27Z" transform="translate(-49.81 -2.31)"/><path class="cls-9" d="M80.11,40.1h-.87L78.17,37a7.2,7.2,0,0,0-.35-.85,2.88,2.88,0,0,0-.44-.7,2,2,0,0,0-.59-.47,1.68,1.68,0,0,0-.77-.17H72.26V40.1h-.79V28.28h4.85a6.26,6.26,0,0,1,1.31.13,3.11,3.11,0,0,1,1.13.49,2.4,2.4,0,0,1,.79,1,3.56,3.56,0,0,1,.29,1.56,4.33,4.33,0,0,1-.13,1.11,3.06,3.06,0,0,1-.4.92,2.52,2.52,0,0,1-.69.69,2.71,2.71,0,0,1-1,.41,3.36,3.36,0,0,1,.5.5,2.83,2.83,0,0,1,.34.51,4,4,0,0,1,.26.59c.07.22.16.46.26.75Zm-7.85-6.19H76a6.71,6.71,0,0,0,1.37-.13,2.33,2.33,0,0,0,.94-.43,1.86,1.86,0,0,0,.54-.77A3.35,3.35,0,0,0,79,31.41a2.05,2.05,0,0,0-.7-1.74,3.49,3.49,0,0,0-2.1-.53h-4Z" transform="translate(-49.81 -2.31)"/><path class="cls-9" d="M91,40.1h-1l-1.31-3.8h-5.3c-.19.6-.4,1.23-.62,1.9s-.43,1.3-.64,1.9h-.83c.35-1,.7-2,1-3s.69-2,1-2.92.68-1.94,1-2.92l1-3h1.12Zm-2.49-4.48L86,29.05l-2.37,6.57Z" transform="translate(-49.81 -2.31)"/><path class="cls-9" d="M101,40.1h-1L93.4,29.31V40.1h-.79V28.28h1.08l6.52,10.78V28.28H101Z" transform="translate(-49.81 -2.31)"/><path class="cls-9" d="M107.67,40.32a6.73,6.73,0,0,1-1.9-.25,3.74,3.74,0,0,1-1.37-.73,3,3,0,0,1-.85-1.13,4.35,4.35,0,0,1-.35-1.5H104a3.59,3.59,0,0,0,.44,1.33,2.8,2.8,0,0,0,.8.84,3.22,3.22,0,0,0,1.09.45,6.74,6.74,0,0,0,1.3.13,4.69,4.69,0,0,0,1.29-.17,2.91,2.91,0,0,0,1-.49,2.29,2.29,0,0,0,.63-.76,2.37,2.37,0,0,0,.21-1,2.45,2.45,0,0,0-.18-1,1.84,1.84,0,0,0-.63-.71,4.94,4.94,0,0,0-1.17-.54c-.48-.16-1.08-.32-1.79-.49a9.39,9.39,0,0,1-1.52-.49,4.1,4.1,0,0,1-1.05-.66,2.3,2.3,0,0,1-.61-.85,3,3,0,0,1-.19-1.12,3.05,3.05,0,0,1,.26-1.26,2.88,2.88,0,0,1,.75-1,3.48,3.48,0,0,1,1.17-.64,4.83,4.83,0,0,1,1.51-.23,5.22,5.22,0,0,1,1.52.21,3.88,3.88,0,0,1,1.2.61,3.31,3.31,0,0,1,.84,1,3.55,3.55,0,0,1,.4,1.29h-.75a3,3,0,0,0-.36-.88,2.37,2.37,0,0,0-.63-.71,3.12,3.12,0,0,0-.93-.47,4.1,4.1,0,0,0-1.22-.16,3.51,3.51,0,0,0-2.19.58,1.93,1.93,0,0,0-.74,1.6,2.21,2.21,0,0,0,.14.81,1.53,1.53,0,0,0,.47.62,3.5,3.5,0,0,0,.87.49,9.68,9.68,0,0,0,1.34.39l1,.23a9.89,9.89,0,0,1,1,.28,5.7,5.7,0,0,1,.91.4,2.89,2.89,0,0,1,.75.58,2.6,2.6,0,0,1,.52.83,3.24,3.24,0,0,1,.19,1.14,3.31,3.31,0,0,1-.29,1.38,3.24,3.24,0,0,1-.81,1.09,3.57,3.57,0,0,1-1.23.72A4.8,4.8,0,0,1,107.67,40.32Z" transform="translate(-49.81 -2.31)"/><path class="cls-9" d="M120.9,29.14h-6.18v4.44h5.38v.87h-5.38V40.1h-.78V28.28h7Z" transform="translate(-49.81 -2.31)"/><path class="cls-9" d="M131,40.1h-7.78V28.28h7.51v.86h-6.72v4.38h6.3v.86h-6.3v4.86h7Z" transform="translate(-49.81 -2.31)"/><path class="cls-9" d="M142.07,40.1h-.86L140.13,37c-.1-.3-.22-.58-.34-.85a3.24,3.24,0,0,0-.45-.7,2,2,0,0,0-.59-.47,1.68,1.68,0,0,0-.77-.17h-3.76V40.1h-.79V28.28h4.85a6.26,6.26,0,0,1,1.31.13,3.11,3.11,0,0,1,1.13.49,2.4,2.4,0,0,1,.79,1,3.56,3.56,0,0,1,.3,1.56,4.32,4.32,0,0,1-.14,1.11,3.06,3.06,0,0,1-.4.92,2.52,2.52,0,0,1-.69.69,2.71,2.71,0,0,1-1,.41,4.05,4.05,0,0,1,.51.5,2.78,2.78,0,0,1,.33.51,3.18,3.18,0,0,1,.26.59c.08.22.16.46.26.75Zm-7.85-6.19H138a6.71,6.71,0,0,0,1.37-.13,2.33,2.33,0,0,0,.94-.43,1.77,1.77,0,0,0,.54-.77,3.35,3.35,0,0,0,.18-1.17,2,2,0,0,0-.7-1.74,3.49,3.49,0,0,0-2.1-.53h-4Z" transform="translate(-49.81 -2.31)"/></svg>