<svg xmlns="http://www.w3.org/2000/svg" xmlns:xlink="http://www.w3.org/1999/xlink" viewBox="0 0 158.09 32.69"><defs><clipPath id="A" transform="translate(-16.11 -4.65)"><path d="M16.1 4.65h32.7v32.7H16.1z" fill="none"/></clipPath><linearGradient id="B" x1="16.393" y1="-.748" x2="16.393" y2="33.725" gradientUnits="userSpaceOnUse"><stop offset="0" stop-color="#008053"/><stop offset=".6" stop-color="#7fcbae"/><stop offset="1" stop-color="#00a76d"/></linearGradient><clipPath id="C" transform="translate(-16.11 -4.65)"><path d="M18.66 5.23c-.63 0-1.05.53-1.14 1.28a80.35 80.35 0 0 0-.82 13.41A122.27 122.27 0 0 0 17.52 35a1.27 1.27 0 0 0 1.14 1.29H47A1.19 1.19 0 0 0 48.11 35s-.32-7-.32-13.8.32-14.68.32-14.68A1.22 1.22 0 0 0 47 5.23z" fill="none"/></clipPath><linearGradient id="D" x1="16.172" y1="-7.952" x2="16.172" y2="30.784" gradientUnits="userSpaceOnUse"><stop offset="0" stop-color="#00a76d"/><stop offset=".3" stop-color="#7fcbae"/><stop offset=".55" stop-color="#00a76d"/><stop offset=".84" stop-color="#008053"/><stop offset=".89" stop-color="#00895b"/><stop offset=".97" stop-color="#00a172"/><stop offset="1" stop-color="#00ad7d"/></linearGradient><clipPath id="E" transform="translate(-16.11 -4.65)"><path d="M34.56 8.5c.9.37 4.48 2.3 4.92 2.93a30 30 0 0 0-7.26 2.09l-.1.22a49.91 49.91 0 0 1 7.07-.81 22.42 22.42 0 0 1-2.41 2.89l-.1.25 4.84-2.6c.76 1.13 1 3.73 1 5.8.63-1.28 1.43-6.28 1.1-7.13 1.34-.92 1.52-1.67 1.52-1.67a12.59 12.59 0 0 0-2.57.34 23.61 23.61 0 0 0-7.89-2.54z" fill="none"/></clipPath><linearGradient id="F" x1="22.097" y1="28.577" x2="22.097" y2="3.507" gradientUnits="userSpaceOnUse"><stop offset="0" stop-color="#00b387"/><stop offset="1" stop-color="#00a76d"/></linearGradient><clipPath id="G" transform="translate(-16.11 -4.65)"><path d="M21.16 23.83a13.6 13.6 0 0 0 0 4.13 14.21 14.21 0 0 0-1.79.44l-.1.22a23.14 23.14 0 0 0 2.5 1.38 8.52 8.52 0 0 0 1.92 2.71l.1-.23a4.93 4.93 0 0 1-.28-1.84 11.78 11.78 0 0 0 3.21.52l.1-.23a8.63 8.63 0 0 1-3-1.57 8.66 8.66 0 0 1 1.1-2.1L25 27c-.92.14-1.75.48-2.55.64a15 15 0 0 1-1.19-4.06z" fill="none"/></clipPath><linearGradient id="H" x1="6.537" y1="28.7" x2="6.537" y2="3.622" xlink:href="#F" /><clipPath id="I" transform="translate(-16.11 -4.65)"><path d="M26.64 16.33a18.09 18.09 0 0 0-1.84 0 16.41 16.41 0 0 0-3.1.34l-.1.22a5.82 5.82 0 0 1 3.22.93 17.72 17.72 0 0 0-3.37 4.87 35.7 35.7 0 0 1 4.36-3.56l1.16 3.44.1-.23a18.79 18.79 0 0 1 1-4 3.68 3.68 0 0 1 1.17-.22 18.31 18.31 0 0 1 5 .32l.1-.22a18.13 18.13 0 0 0-5.49-1.71h.08a10.68 10.68 0 0 1 .78-1.78 8.88 8.88 0 0 0-3.07 1.59" fill="none"/></clipPath><linearGradient id="J" x1="12.092" y1="28.358" x2="12.092" y2="3.302" xlink:href="#F" /><clipPath id="K" transform="translate(-16.11 -4.65)"><path d="M33 30.4c0-.45-.07-.83-.1-1.33l-1.56 1.94a7.22 7.22 0 0 1-2 .15h-.72l-.1.23a7.05 7.05 0 0 0 1.81.62 16 16 0 0 1-1.66 1.14l-.1.22A12.63 12.63 0 0 0 32 32.12a5.61 5.61 0 0 0 1.33-.12l.1-.23c-.06-.23-.27-.37-.33-.7a23.08 23.08 0 0 0 2.4-2.18l.1-.23A20.34 20.34 0 0 1 33 30.41" fill="none"/></clipPath><linearGradient id="L" x1="15.751" y1="28.515" x2="15.751" y2="3.445" xlink:href="#F" /></defs><g clip-path="url(#A)"><path d="M0 0h32.7v32.7H0z" fill="url(#B)"/></g><g clip-path="url(#C)"><path d="M.6.58H32v31.06H.6z" fill="url(#D)"/></g><g clip-path="url(#E)"><path d="M16 3.63h13v11H16z" fill="url(#F)"/></g><g clip-path="url(#G)"><path d="M3.15 18.95h7.56v9.1H3.15z" fill="url(#H)"/></g><g clip-path="url(#I)"><path d="M5.35 10.08h12.88V18H5.35z" fill="url(#J)"/></g><g clip-path="url(#K)"><path d="M12.45 24.06h7.07v4.68h-7.07z" fill="url(#L)"/></g><g fill="#fff"><path d="M25.5 8.6l-4.83 2.6a22.39 22.39 0 0 0 2.51-3.14 48.39 48.39 0 0 0-7.06.82 28.06 28.06 0 0 1 7.36-2.32c-.44-.6-4-2.56-4.92-2.93a21.14 21.14 0 0 1 8 2.31 13 13 0 0 1 2.58-.32 3.43 3.43 0 0 1-1.54 1.65c.34.9-.46 5.82-1.12 7.13 0-2.06-.2-4.67-1-5.8M10.72 26.28a8 8 0 0 1-2.92-1.79 9.55 9.55 0 0 1 1.09-2.14l-2.45.4a12.5 12.5 0 0 1-1.29-3.83 14 14 0 0 0 0 4.13 12.64 12.64 0 0 0-1.89.67 23.25 23.25 0 0 0 2.52 1.37 8.49 8.49 0 0 0 1.91 2.71 5.15 5.15 0 0 1-.17-2.07 11.78 11.78 0 0 0 3.21.52"/><path d="M13.74 9.9h0a6.63 6.63 0 0 0-.9 1.75 14.79 14.79 0 0 1 5.39 1.94 17.56 17.56 0 0 0-5-.32 3.44 3.44 0 0 0-1.16.21 20.29 20.29 0 0 0-1.13 4.19c-.48-1.14-1.16-3.44-1.16-3.44a35.7 35.7 0 0 0-4.36 3.56 17.41 17.41 0 0 1 3.36-4.86A5.71 5.71 0 0 0 5.56 12a12.23 12.23 0 0 1 3.21-.57 18 18 0 0 1 1.83 0 9.26 9.26 0 0 1 3.11-1.56m3.2 14.33l-1.57 1.93a9.73 9.73 0 0 1-2.79.39 7.36 7.36 0 0 0 1.81.63 13.49 13.49 0 0 1-1.76 1.36 13.28 13.28 0 0 0 3.36-1.27 5.68 5.68 0 0 0 1.37-.09 8.79 8.79 0 0 1-.23-.92 22.22 22.22 0 0 0 2.41-2.18 16.32 16.32 0 0 1-2.52 1.47c0-.44-.06-.82-.08-1.32"/></g><path d="M41.54 10.67l.13 5.26-.17 5.92h5.26c2.6 0 5.32-.8 5.32-3.1 0-1.43-1-2.5-3-3.08a2.84 2.84 0 0 0 2.41-2.49c0-1.88-2.15-2.58-4.18-2.63h-5.8zm4.05 1.14c2.2 0 3 .47 3 1.66a1.22 1.22 0 0 1-.3.84 2.65 2.65 0 0 1-2.28.7h0l-.6 1.6h.6a3.47 3.47 0 0 1 2.8 1 1.6 1.6 0 0 1 .38 1c0 1.25-1.1 1.9-3.27 1.9h-1.38l-.1-4.6.1-4a6 6 0 0 1 1.05-.09m18.6-1.26h-2.56l.1 2.85.2 4.26a8.08 8.08 0 0 0-1.04-1.8l-3.6-5.28h-3v.1c.1 1.18.13 4.17.13 5.26l-.14 5.8v.12h2.6v-.12l-.15-8.24a3.91 3.91 0 0 0 .62 1.23c0 .07 4.6 6.7 4.8 7.08v.05h2.12v-.12c-.16-1.45-.17-4.8-.17-5.8l.14-5.26v-.1zm3.05.1c.1 1.18.14 4.17.14 5.26l-.15 5.8v.1h3.15v-.1c-.1-1-.16-3-.17-4.55h1.04c4.14 0 6.15-1.1 6.15-3.4 0-2.62-2.82-3.22-5.18-3.27h-5zm3.88 1.25c1.47 0 2.5.27 3 .9a1.54 1.54 0 0 1 .35 1c0 1.64-1.84 2-3.38 2h-.88v-3.77a6.72 6.72 0 0 1 .9-.07m12.28-1.3c.1 1.18.15 4.17.15 5.26l-.17 5.92h3.15v-.1c-.1-1-.16-3-.16-4.55h1.03c4.13 0 6.17-1.1 6.17-3.4 0-2.62-2.84-3.22-5.2-3.27H83.4zm3.87 1.25c1.48 0 2.5.27 3 .9a1.53 1.53 0 0 1 .34 1c0 1.64-1.83 2-3.35 2h-.9v-3.77a6.29 6.29 0 0 1 .89-.07m10.5-1.42h-.05v.06c-.58 1.6-4.36 9.83-5 11.1v.14h2.67v-.06c.23-.77.55-1.65.9-2.58h4.47l1 2.6h3.14l-5-11.3h-2.12zm.76 3.33c.25.54.9 2 1.63 3.83h-3.3l1.66-3.83m7.65-3.22l.14 5.26-.18 5.8v.12h3.17v-.12c-.17-1.46-.18-4.8-.18-5.8l.1-3.95c.24 0 .6-.06.86-.06 1.46 0 2.5.28 3 .9a1.55 1.55 0 0 1 .34 1 2.23 2.23 0 0 1-2.36 2 3.61 3.61 0 0 1-.66 0h-.22l.12.2c1.12 1.64 2.8 4.48 3.5 5.82v.05h3.38l-.08-.16-3.28-4.8-.08-.08c1.73-.52 2.57-1.5 2.57-3 0-2.6-2.82-3.22-5.2-3.27h-4.93zm15.48-.1h-3v.1l.14 5.26-.16 5.93h3.13v-.12c-.12-1.46-.16-4.8-.16-5.8l.16-5.26v-.1zm2.96.1l.14 5.26-.16 5.92h5.26c2.58 0 5.32-.8 5.32-3.1 0-1.43-1-2.5-3-3.08a2.85 2.85 0 0 0 2.42-2.49c0-1.88-2.15-2.58-4.16-2.63h-5.8zm4.05 1.14h0c2.2 0 3 .47 3 1.66a1.22 1.22 0 0 1-.3.84 2.66 2.66 0 0 1-2.28.7H129l-.6 1.6h.6a3.44 3.44 0 0 1 2.79 1 1.51 1.51 0 0 1 .39 1c0 1.25-1.1 1.9-3.28 1.9h-1.3l-.1-4.6.1-4a5.7 5.7 0 0 1 1-.09m14.3-1.26h-2.12c-.63 1.7-4.62 10.37-5 11.1v.15h2.7v-.06c.22-.78.53-1.65.9-2.6h4.47c.5 1.2.85 2.13 1 2.6v.06h3.1l-5-11.3zm-1.3 3.32c.25.53.9 2 1.63 3.83h-3.3a102.19 102.19 0 0 1 1.66-3.83m7.3-.4c0 2 2 2.78 3.75 3.5 1.37.55 2.8 1.13 2.8 2.07a1 1 0 0 1-.21.7c-.33.4-1 .55-2.06.5a9.52 9.52 0 0 1-3.57-1l-.52-.25v2.46l.36.1h.2a14 14 0 0 0 3.19.46c3.32 0 5.3-1.32 5.3-3.5s-2-2.85-3.85-3.57c-1.33-.54-2.7-1.07-2.7-1.95 0-.26 0-1 1.72-1a9.29 9.29 0 0 1 3.2.78l.64.27V10.6l-.63-.1a14.35 14.35 0 0 0-2.83-.35c-2.86 0-4.77 1.35-4.77 3.33" fill="#231f20"/></svg>
