<svg id="Warstwa_1" data-name="Warstwa 1" xmlns="http://www.w3.org/2000/svg" xmlns:xlink="http://www.w3.org/1999/xlink" viewBox="0 0 100.21 37.45"><defs><style>.cls-1{fill:#cb7235;}.cls-2{fill:#fff;}.cls-3{fill:#eda021;}.cls-4{fill:#f26322;}.cls-5{fill:url(#Gradient_bez_nazwy);}.cls-6{fill:#222160;}</style><linearGradient id="Gradient_bez_nazwy" x1="-245.65" y1="441.7" x2="-245.24" y2="441.7" gradientTransform="translate(58582.25 -105320.2) scale(238.47)" gradientUnits="userSpaceOnUse"><stop offset="0" stop-color="#f8ce0d"/><stop offset="0.21" stop-color="#f5c210"/><stop offset="0.59" stop-color="#eea319"/><stop offset="1" stop-color="#e57a25"/></linearGradient></defs><title>Płacę z ING PBL</title><rect class="cls-1" width="100.21" height="37.45" rx="4.99"/><rect class="cls-2" x="0.67" y="0.39" width="99.08" height="36.66" rx="4.99"/><path class="cls-3" d="M5.65,37.05a4.92,4.92,0,0,1-5-4.84v-27a4.92,4.92,0,0,1,5-4.84H94.76a4.92,4.92,0,0,1,5,4.84h0Z" transform="translate(0 0)"/><path class="cls-4" d="M84.68,30.85c-.1,0-.14.23-.14.33a2.21,2.21,0,0,0,.31,1h.41a7.92,7.92,0,0,1-.14-1.09,2.11,2.11,0,0,1,.19-.65h-.46a.37.37,0,0,1,.19.36.52.52,0,0,1-.19.36C84.77,31.14,84.77,31,84.68,30.85Z" transform="translate(0 0)"/><path class="cls-4" d="M76.71,31.09c-.14.46.28.75.32,1.1h.55A3.05,3.05,0,0,1,77.3,31a1.57,1.57,0,0,1,.13-.77l-.49.1c-.14.17-.19.27-.19.36L77,30.6a.67.67,0,0,1,.13.19C77.15,30.89,76.8,31,76.71,31.09Z" transform="translate(0 0)"/><path class="cls-4" d="M93.43,30.76a6.37,6.37,0,0,0,1.74-4.46,7.82,7.82,0,0,0-2.3-5.47c-.65-.64-1.34-.95-1.89-1.57a3.51,3.51,0,0,1-.67-.91,2.37,2.37,0,0,0-.65-.49,1.47,1.47,0,0,0,.14.4h0a1.12,1.12,0,0,1-.65-.28l.19-.19c0-.08-.19-.08-.28-.08a6.18,6.18,0,0,0-2.12.4v.1c.46.13.55.68.8.95H88c.09,0,.22.1.32.1a.79.79,0,0,0-.1-.27.18.18,0,0,1,.25,0l0,0c.23.13.55-.1.78.27a1.59,1.59,0,0,0-.78.13s.13.12.09.22c-.23-.1-.5,0-.59-.18h0a2.55,2.55,0,0,0,1.09.71c.59.1,1.09-.19,1.67,0a6.63,6.63,0,0,1,3.54,5.74c0,3.37-1.92,4.7-3.14,4.7a1.22,1.22,0,0,1-.71-.27,6.8,6.8,0,0,0,.13-1.8,7.89,7.89,0,0,0-1.83-5.14,2.62,2.62,0,0,0-1.61-.92.87.87,0,0,0-.74.22.93.93,0,0,0-.33.78,2.4,2.4,0,0,1-1.42.41A2.81,2.81,0,0,1,83,23.21v-.7c-.13,0-.6-.33-.37-.54a.62.62,0,0,1,.28.17,1.67,1.67,0,0,0-.28-.94.57.57,0,0,1-.36-.09.76.76,0,0,1-.28-.56c.13.23.36.14.49.29a8.22,8.22,0,0,0-.55-1.58c-.09-.4-.5-.65-.78-.9s-.19-.23-.35-.23-.19-.28-.19-.4a1.59,1.59,0,0,1,.27.12,3.17,3.17,0,0,0-1-1.67l-.13.09H79c.09-.09.28-.13.4-.23a.59.59,0,0,0-.5-.19c-.12,0-.3.19-.47.19a.36.36,0,0,1,.22-.4,2.75,2.75,0,0,0-.81,0c0,.23-.19.36-.19.55s-.19.23-.32.36a5.84,5.84,0,0,1,.18-.83c-.18,0-.4.19-.49.19a3.54,3.54,0,0,0-1-.37c.28.19.13.5.19.74L76,16.19c0-.19-.28-.32-.31-.55a1.14,1.14,0,0,0-.69.23h0a.55.55,0,0,1,.41.28c-.31,0-.56-.13-.88-.13v0a.89.89,0,0,0-.32.29,2,2,0,0,0-.69.9.66.66,0,0,1,.28,0c-.18,0-.28.28-.45.32v.68a1.4,1.4,0,0,0-.41.55,8.16,8.16,0,0,0-.28,2.46.38.38,0,0,1-.23.29v.7s.28-.26.4-.35v.58c-.18,0-.31.22-.31.36v.55a.31.31,0,0,0,0,.19.29.29,0,0,1,.22-.23.5.5,0,0,1,.29-.09,1.86,1.86,0,0,0-.29.49l-.13.14a.29.29,0,0,0,0,.13,13.77,13.77,0,0,0,.83,2.67,11.75,11.75,0,0,0-1.09,2.91,1.14,1.14,0,0,0-.83-.27,1,1,0,0,0-.72.4.7.7,0,0,0-.8.1.79.79,0,0,0-.38.78,1,1,0,0,0-.28.65,1.71,1.71,0,0,0,.28,1h6.87a1.27,1.27,0,0,0-.23-.41,2.09,2.09,0,0,1,0-.93,4.61,4.61,0,0,1,.46-.77v-.18H77c.19,0,.31-.14.55-.14.14.19.14-.13.38-.23a1.19,1.19,0,0,1,1.24.37V30H79a1.13,1.13,0,0,0-.88-.09v.45c.19,0,.33.18.5.27a.68.68,0,0,1,.51-.27.51.51,0,0,1,.56.46v.54a1.37,1.37,0,0,0,.64.31.32.32,0,0,1-.36.19h-.36s-.14,0-.14-.19a6.05,6.05,0,0,0-.32.55h5.3c-.09-.19-.19-.31-.23-.4a3.63,3.63,0,0,1-.09-.93l.5-.67c.27,0,.5-.1,1-.14.1-.13,0-.19.41-.19a1.61,1.61,0,0,1,.65.1v.18c0,.09-.27-.09-.41,0s0,.14,0,.23-.4-.09-.4-.09-.1.27-.14.36.19.19.29.27-.14.29-.14.41-.28-.19-.28-.14a5.57,5.57,0,0,0,0,1h.5V31.4c0-.46.59-1.27.93-1.27a.83.83,0,0,1,.45.19c.08.18.3.27.3.37s-.12.13-.35.13-.09-.13-.22-.23l-.28.27s.31.29.31.46a.51.51,0,0,1-.19.46l-.28-.55c-.13,0-.36.28-.36.4a3.74,3.74,0,0,0-.1.55H89.1A1.65,1.65,0,0,0,90,31.9h.55A3.61,3.61,0,0,0,93.43,30.76Zm-5-12.27c-.09-.14-.23,0-.32,0s-.14,0-.31-.14a1.63,1.63,0,0,0,.64-.22c.19.13.37.18.5.36Zm1.48.69c-.13-.19-.31-.41-.5-.41.14,0,.33-.13.56-.13.09.23.28.36.32.55v.28a.5.5,0,0,0-.36-.29Zm-7.5,6-.23.09a1.27,1.27,0,0,1-1-.32c.18,0,.4-.23.4-.23a1.91,1.91,0,0,0,.8.44Zm-2.31-.54c-.23,0-.4-.18-.65-.28a4,4,0,0,0-.18-.66c.18.14.59.14.49.55C79.74,24.37,79.93,24.51,80.1,24.64Zm0,1.51a2.25,2.25,0,0,1,.5.29h-.14A1.55,1.55,0,0,1,79.13,26,2.38,2.38,0,0,1,80,25.9Zm.09-.73a2.3,2.3,0,0,1,.5-.18,3.13,3.13,0,0,0,.68.68,1.24,1.24,0,0,1-.68-.13,1.68,1.68,0,0,1-.54-.37Zm-.49,2.82a.41.41,0,0,1,.28-.36c.28.09.5-.5.78-.19a1,1,0,0,0,.35,0c.31.13.4.4.55.64-.23,0-.4,0-.55-.22,0,0-.12-.14-.17,0-.23.18-.46-.14-.75-.1a.82.82,0,0,1-.49.28ZM82,23.43c0,.19-.23,0-.27,0h-.4c0-.09-.1-.13-.1-.23.19,0,.31-.13.46,0s.12.23.27.23Zm-.89-2c.1.19.1.28.19.36.19-.09.19.14.23.19a1.3,1.3,0,0,1,.14.39c-.29,0-.41-.13-.56-.39s0-.31,0-.47Zm-.33,2.22.44.41c-.27,0-.58.13-.71-.14a2.39,2.39,0,0,0,.23-.22Zm-.06-3.46-.09.46-.37.09.23-1a1.44,1.44,0,0,1,.19.5ZM74.26,16.9a.31.31,0,0,0,.25-.13c.22,0,.36-.28.65-.14a1.78,1.78,0,0,1,.5.14.25.25,0,0,0,.09.23c.28,0,.28.27.4.5a1.15,1.15,0,0,0,.37,0c.28.08.5.08.59.2a1.78,1.78,0,0,1,1.15-.2,4.87,4.87,0,0,1,.18-.55c0,.13,0,0,.14,0s.38-.37.69-.29.49,0,.68.29.23.45.37.67c-.14.27,0,.64-.29.77l-.28.28c-.09,0-.09.09-.23.09a1.55,1.55,0,0,1-.09,1.08c.09,0,.23,0,.23-.17V20a1,1,0,0,1-.33.65c-.09.28-.31.64-.6.68v.22a4,4,0,0,1,1.85.5v.29a4.48,4.48,0,0,0-1.81-.58V22a5.89,5.89,0,0,1,1.48.89v.42a3.41,3.41,0,0,0-1.54-1.05c0,.09-.21.19-.27.36a2.45,2.45,0,0,0-1.06-.49c-.14,0-.23-.49-.23-.49a.7.7,0,0,0,.46-.46h.19c.13,0,.13-.09.13-.23s-.59-.28-.87-.28a1.12,1.12,0,0,0-.74.14c-.1,0,0,.13,0,.22s.14.14.14.14a1,1,0,0,1,.28-.09c0,.28,0,.4.31.55v.44a3,3,0,0,0-1.33.41,1.26,1.26,0,0,1-.32-.37,7.16,7.16,0,0,0-1.47.9v-.31A6.27,6.27,0,0,1,75.26,22v-.31c-.19-.1-.36,0-.55,0a2.2,2.2,0,0,0-1.07.44,1.61,1.61,0,0,0,0-.31,2.71,2.71,0,0,1,1.71-.4V21.2c0-.09,0-.23-.13-.23a1.69,1.69,0,0,1-.55-1l.19-.09a1.6,1.6,0,0,1,0-1.18,1.41,1.41,0,0,1-.61-.55,2.8,2.8,0,0,1-.23-.63,2.27,2.27,0,0,0,.2-.57Zm4.22,8.47c-.22-.13-.64-.18-.55-.45a.93.93,0,0,1,.31-.37,2.9,2.9,0,0,0,.2.87Zm-2.82-1.3-.14.56a2.5,2.5,0,0,1-.31-.84Zm-.61.71a1.44,1.44,0,0,1-.71-.58,1.69,1.69,0,0,1-.12-.55.37.37,0,0,1,.32.23h0a1.72,1.72,0,0,1,.47.95Zm-.51.54a1,1,0,0,1-.3.65l-.17.13c0-.28.12-.5.12-.74.11,0,.24-.08.31,0Zm.46.55h.18l-.18.68c-.23.17-.56.09-.8.09a1.65,1.65,0,0,0,.76-.72ZM73.43,18.7a1.46,1.46,0,0,1,.29-.41v.55l-.31.1Zm0,.92.37-.13-.23.28a9.33,9.33,0,0,1-.14,1.17l-.22-.74a2.55,2.55,0,0,1,.18-.53Zm0,5.26a.5.5,0,0,1,.22-.31.72.72,0,0,1,.4.09c-.23.23-.45.32-.55.59a.86.86,0,0,0-.15-.32ZM70.51,31a.77.77,0,0,0-.32-.13c-.12.28,0,.45,0,.78a1.31,1.31,0,0,1,0,.28c-.08,0-.26-.19-.3-.36v-.74l.38-.5a.53.53,0,0,1,.16.72Zm1,0a.41.41,0,0,0-.39-.4,1,1,0,0,0,0,1,1.38,1.38,0,0,1-.4.28,1.63,1.63,0,0,1-.1-.69,2.5,2.5,0,0,1,.14-.9c.13-.13.23-.38.36-.47h.49c-.22,0-.22.19-.22.32s.31.1.31.31a1.89,1.89,0,0,1-.22.6Zm1.15.63c0-.23.13-.49.13-.78a.69.69,0,0,0-.38-.19c-.13.1-.13.19-.18.33a4,4,0,0,0-.46.83h0a2.87,2.87,0,0,1,.31-1.55.79.79,0,0,1,.68-.31H73l-.19.29c.19.09.46.27.46.55s-.63.88-.63.88Zm1.72-.87-.3-.81a8.91,8.91,0,0,0-1-.57c-.19,0-.19.1-.28,0a.49.49,0,0,1,.13-.36h.27l.28.14c.14.13.46.13.46.4a.7.7,0,0,0,.1.28l.41.1v.37Zm.48-.81c-.09-.09,0-.32-.13-.47s.09-.14,0-.19L74.17,29c-.18-.14-.41-.29-.6-.46s-.31,0-.55.09v-.08c.09-.19.09-.4.36-.4a.48.48,0,0,1,.41.13c.19,0,.28.19.4.23a2.5,2.5,0,0,0,.51.4.3.3,0,0,0,.14.29c.28,0,.19.27.28.45Zm.5-1c-.09-.31-.31-.65-.59-.65a1.35,1.35,0,0,1-.31-.4c-.12-.14-.25,0-.42-.14a.94.94,0,0,0-.59.14v-.14l.31-.36c.32,0,.7,0,.78.23A1.52,1.52,0,0,1,75,28v.14a1.2,1.2,0,0,1,.36.13c.08,0-.07.71-.07.71Zm.5-2.24a1.38,1.38,0,0,1-.64,0c.13-.09.28-.12.45-.25L76,26h.36c-.16.3-.3.56-.57.65ZM76,24.61a.58.58,0,0,1,.4.1c0,.23.1.42.1.68-.3-.23-.53-.46-.53-.75Zm.13,2.74c0-.14.18-.19.27-.31a2.41,2.41,0,0,0,.33-.5.86.86,0,0,1,.5-.12c0,.25-.19.35-.41.66-.16.11-.45.16-.73.3Zm.65.86-.28-.36h.68l.14.27a.54.54,0,0,1-.57.12Zm.31-2.68L77,25.07a1.63,1.63,0,0,0,.45-.42c0,.37-.07.77-.36.91Zm.55-2.36v.14a3.73,3.73,0,0,0-.09.46.53.53,0,0,1-.46,0v-.14a1.09,1.09,0,0,1,0-.36h0c-.14,0-.14.13-.14.23s-.13.18-.13.31a.53.53,0,0,1-.4-.14v-.5l-.23.23c-.19-.13-.23-.5-.23-.74a2.66,2.66,0,0,1,2.21,0,1.48,1.48,0,0,1,.27.1,1.32,1.32,0,0,1-.41.87,1,1,0,0,0-.42-.43Zm.82,4.92a1.6,1.6,0,0,1-.45-.23,1.31,1.31,0,0,1,0-.28h.36l.23.5h-.14Zm0-1.25a4.61,4.61,0,0,1-.74-.85l.74.13a5.29,5.29,0,0,1,.52.54.86.86,0,0,1-.55.21ZM79,25.13a1,1,0,0,1,0-1.08,6.74,6.74,0,0,1,.17.75c0,.19.32.29.4.41-.2.07-.51.16-.6-.05Zm.15,4.08.23-.55a1.8,1.8,0,0,0,.4-.1,1.77,1.77,0,0,1,.46,0h0a1.86,1.86,0,0,1,1.46.37v.37c-.19-.13-.46-.13-.56-.37a2.35,2.35,0,0,0-.53,0,3,3,0,0,1-.6,0l-.09-.1A1.74,1.74,0,0,0,79.1,29.21Zm1.47,1.64-.14.14c-.13-.14,0-.5-.28-.56a1.37,1.37,0,0,1-.5-.26l.19-.1a.31.31,0,0,1,.19,0c.09.1.19.14.19.23s.23,0,.32.12a.47.47,0,0,1,0,.43ZM82,30.76c-.09-.28-.19-.68-.5-.68,0-.18-.09-.22-.28-.37h-.35c0,.19.3.19.12.41.18.14.31.14.41.37s0,.32,0,.4l-.29.14c0-.23,0-.68-.27-.77-.26.09-.31-.28-.49-.38s-.1-.23-.23-.13-.5,0-.74.13l.23-.36c.18-.14.36-.1.55-.14h.36a3.52,3.52,0,0,1,1,.31.43.43,0,0,1,.27.42c.09,0,.28,0,.28.19a1.77,1.77,0,0,1-.08.46Zm.65-.68c-.1-.13-.14-.22-.23-.22a2.68,2.68,0,0,0-.23-1.34v-.13c.14.23.5.46.46.68v1h0Zm-.46-5.66.36-.17a1.77,1.77,0,0,0,.41.21.62.62,0,0,1-.78,0Zm3.07.74a1.11,1.11,0,0,1,.27.26v.37a4.54,4.54,0,0,1-1-1.05c.36,0,.45.36.72.42Zm-2,.09c.12.13.29.32.29.46s-.09.19-.17.28-.18-.23-.18-.32a.86.86,0,0,1,0-.42Zm.39,3.41A.88.88,0,0,0,83.4,28c0-.09.12-.09,0-.23s-.26-.13-.26-.32.18-.33.26-.46.19.09.19.36a.71.71,0,0,1,0,.29c0,.13.28.13.28.28s-.24.5-.28.77Zm.5-2c0,.1-.14.18-.19.18a1,1,0,0,1-.27-.45,1,1,0,0,1,.13-.5s.1.1.14.1,0,.19,0,.31.24.3.16.39Zm.4,2.38c.09-.22.09-.68,0-.68s-.28,0-.28-.1v-.4c0-.09-.15-.25-.15-.35,0-.29.33-.31.41-.5a2.91,2.91,0,0,1,0,.59c0,.09.13.38,0,.59s.27,0,.27.19a2.17,2.17,0,0,1-.29.69Zm.74-1.1c-.13,0-.13-.09-.13-.28a4.12,4.12,0,0,0-.23-.78,8.79,8.79,0,0,0-.5-1.08c0-.19-.28-.28-.46-.41a.85.85,0,0,1,.65.19c0,.1,0,.14.19.29.31,0,.23.4.49.59-.13.12-.18.2-.28.3.14.09.28.13.33.28a9.07,9.07,0,0,1-.1.93Zm.65-.44c-.1-.29-.29-.56-.38-.81v-.1c0-.1.23,0,.23,0a1,1,0,0,1,.13.37c0,.23-.08.38,0,.55Zm2.44-1.38c-.1-.09,0-.28-.23-.28s-.23.13-.23.13-.35-.13-.35,0a.4.4,0,0,1-.41.31.66.66,0,0,1-.28,0v-.44c.59,0,.55-.19.8-.19s.29.09.44.09.09-.09.32-.09.31.19.46.23.14.32.14.5c-.34,0-.66-.08-.7-.23Zm.28,1.23c-.14,0-.46-.1-.46-.23s-.09-.23-.31-.23a1.58,1.58,0,0,0-.57.13,1.22,1.22,0,0,1-.18-.36,2.46,2.46,0,0,1,.6-.12c.31,0,.64,0,.64.12s.24.25.24.72Zm-.54-2.52c.13,0,.23-.09.32-.09a1.17,1.17,0,0,1,.46.64A3,3,0,0,0,87.65,25a2.11,2.11,0,0,0-.89.4l-.09-.4c.28,0,.28-.29.46-.29h.44c.13,0,.22-.09.26-.09C88,24.6,88,24.83,88.1,24.83Zm-1.39-.56a.93.93,0,0,1,.55-.33.55.55,0,0,1,.57.45h-.47a.76.76,0,0,0-.65.31.42.42,0,0,1,0-.43Zm.15-1.22a.33.33,0,0,1,.36,0c0,.29.31.14.49.23a1.62,1.62,0,0,1,.17.41,2.33,2.33,0,0,0-.78-.18,1.22,1.22,0,0,0-.55.23c-.12-.23.11-.59.3-.69Zm.83,6.9a1.38,1.38,0,0,0-.6-.13c0-.19-.14-.41-.23-.41-.29,0-.23.19-.46.19l.4-.4c0-.1,0-.1.14-.1a.41.41,0,0,0,.31.14.62.62,0,0,1,0,.27c.13.09.21,0,.31.09s.25.09.25.28Zm.45-.59c-.31,0-.31-.41-.37-.46-.21-.28-.51,0-.75,0-.1-.28,0-.28,0-.46.13,0,.28-.09.4,0,.22-.09.35.14.57.14a1.24,1.24,0,0,0,.19.36,2.07,2.07,0,0,1-.08.42Zm.23-1c-.33,0-.14-.65-.8-.65-.12,0-.21.23-.39.28v-.32a.4.4,0,0,1,.22-.36c.35,0,.25.13.51.23a1.11,1.11,0,0,0,.4.13v.69ZM89,30.42c0-.22-.28-.37-.46-.74l.19-.33c.14.1.33.23.33.46a.31.31,0,0,0,0,.19s.09,0,.09.14Zm.31-.88-.28-.4c.09-.14.09-.31.23-.55a1,1,0,0,1,.19.36.73.73,0,0,1-.15.62Z" transform="translate(0 0)"/><path class="cls-4" d="M78,30.58c-.1,0-.23.27-.23.37A4.06,4.06,0,0,0,78,32.19h.36V31Z" transform="translate(0 0)"/><path class="cls-4" d="M79,30.76c-.09,0-.3.13-.3.23s-.08,1.18-.08,1.18h.3a7.13,7.13,0,0,0,.4-1.18C79.32,30.81,79.18,30.76,79,30.76Z" transform="translate(0 0)"/><path class="cls-4" d="M79.37,18.51h.14c.13-.14.23,0,.32-.14a.87.87,0,0,0-.09-.84c-.1-.19-.31-.29-.56-.46l-.31.17a.56.56,0,0,0-.25.49A1.77,1.77,0,0,1,79.37,18.51Z" transform="translate(0 0)"/><path class="cls-4" d="M76.76,18.21c-.09-.1-.36,0-.5.09a.36.36,0,0,0-.31.31h.5A1.35,1.35,0,0,1,76.76,18.21Z" transform="translate(0 0)"/><path class="cls-4" d="M75.47,21.57a.28.28,0,0,0,.13.29.78.78,0,0,1,.41-.19C75.93,21.51,75.7,21.67,75.47,21.57Z" transform="translate(0 0)"/><path class="cls-4" d="M77.57,18.25c.23,0,.13.31.32.36h.41c0-.13,0-.13-.1-.13s-.23-.37-.4-.29-.19-.09-.31,0S77.49,18.25,77.57,18.25Z" transform="translate(0 0)"/><polygon class="cls-4" points="77.95 21.7 78.45 21.89 78.45 21.66 78 21.66 77.95 21.7"/><path class="cls-4" d="M75.1,19a.26.26,0,0,0,.25.27h0c0,.19.14.21.19.27a.24.24,0,0,0,.31,0c.14.09.19-.08.23,0a3.32,3.32,0,0,1,0,.63c0,.32-.31.28-.55.4,0,.14-.14.37,0,.5a2.47,2.47,0,0,1,.46-.23.47.47,0,0,1,.31-.36c0-.4.13-.8.13-1.23,0-.09-.09-.18-.23-.27h-1Z" transform="translate(0 0)"/><path class="cls-4" d="M74.88,18.25a4.91,4.91,0,0,1,.87-.55c0-.45-.55-.49-.78-.68h-.19a.87.87,0,0,0-.48.8C74.43,18.25,74.69,18,74.88,18.25Z" transform="translate(0 0)"/><path class="cls-4" d="M77.72,19.26h-.1a4.18,4.18,0,0,1,.1,1.17.38.38,0,0,1,.36.4h0a2.89,2.89,0,0,1,.55.29c.08,0,.12-.19.18-.31-.18-.23-.58-.1-.58-.5l-.27-.1a4.21,4.21,0,0,0,0-.71h0s0,.08.13.18a.79.79,0,0,0,.56-.1c.08,0,.08-.27.17-.27s.18,0,.22-.09.09,0,0,0l-1-.14C78,19.12,77.72,19.12,77.72,19.26Z" transform="translate(0 0)"/><path class="cls-5" d="M44.43,24C41.69,24,.66,20.13.66,17.47V5.24A4.94,4.94,0,0,1,5.66.4H94.77a4.92,4.92,0,0,1,5,4.84Z" transform="translate(0 0)"/><path class="cls-2" d="M64.39,27.75V31.4a12.83,12.83,0,0,1-5.9,1.54c-5.35,0-9.53-3.14-9.53-7.11,0-4.3,2.74-8.55,9.34-8.54a5.86,5.86,0,0,1,2.38.37,3.53,3.53,0,0,0,1.2.3c.36,0,.24-.58.51-.81a2.14,2.14,0,0,1,2,0c1,1,1,5.77,1,5.77H63.52a4.79,4.79,0,0,0-1.33-2.34,5.22,5.22,0,0,0-3.8-1.49c-3.21,0-5.08,2.55-5.08,6.36s2.27,6.34,5.32,6.34a6.45,6.45,0,0,0,2.73-.66V27.39c0-1.21-.2-1.66-1.93-1.66v-.56h6.46v.56c-1.62,0-1.56.51-1.56,2m-16.55-6L47.6,32.66H45.78l-11-11.3a6.46,6.46,0,0,1,0,.88v6.87c0,2.12,0,2.89,1.94,2.89v.55H31.66V32c2,0,1.39-.94,1.39-2.89V21.29c0-1.16-.53-1.09-2-1.31-.6-.08-.58-1.58,0-2s6.8,0,6.8,0l6.85,6.81V21.73c0-2-.65-1.63-1.78-1.8-.91-.13-.87-1.93,0-2a53.12,53.12,0,0,1,6.91.07c.68.08,1,1.79-.24,1.92s-1.74.38-1.81,1.76m-26,10.91V32c1.22,0,1.69-.11,1.69-1.9V21.85c.06-1.22-.07-1.83-1.68-1.83-1.08,0-1-2.07.11-2.12.57,0,2.16-.07,4-.07,1.47,0,3.25,0,4.13.11s.76,2-.06,2.09c-1.27.14-1.7.17-1.69,1v9.11c0,1.79-.07,1.9,1.27,1.9v.55Z" transform="translate(0 0)"/><path class="cls-6" d="M64.41,28.15v3.6a12.62,12.62,0,0,1-5.83,1.52c-5.29,0-8.45-3.1-8.45-7a8,8,0,0,1,8.23-7.76h0A8.49,8.49,0,0,1,61.3,19a5.33,5.33,0,0,0,1.46.43c.35,0,.44-.59.5-.94h.51l.45,4.88h-.61a4.68,4.68,0,0,0-1.32-2.31,5.09,5.09,0,0,0-3.75-1.48c-3.18,0-5,2.52-5,6.29s2.25,6.26,5.26,6.26a6.32,6.32,0,0,0,2.69-.66v-3.7c0-1.19-.19-1.64-1.9-1.64V25.6H66v.55c-1.6,0-1.54.51-1.54,2M47,22.4,46.85,33H46L35.2,21.86a6.17,6.17,0,0,1,0,.86v6.79c0,2.08,0,2.84,1.91,2.84v.55h-5v-.55c1.92,0,1.92-.92,1.92-2.84V21.77c0-1.15,0-2.42-2-2.42v-.53h4.79L45.71,28a3.22,3.22,0,0,1,0-.76v-5c0-2,0-2.86-1.85-2.86v-.54H49v.54c-1.88,0-2,.82-2,2.86M22.29,32.91v-.55c1.21,0,2.09-.1,2.09-1.87V21.22c0-1.82-.66-1.88-2.09-1.88V18.8h7.14v.54c-1.46,0-2.09,0-2.09,1.88v9.29c0,1.77.76,1.87,2.09,1.87v.55Z" transform="translate(0 0)"/><path class="cls-2" d="M8.59,9.33v2.26a2.64,2.64,0,0,0,.08.84A.69.69,0,0,0,9,12.7a1.94,1.94,0,0,0,.76.1V13H5.58V12.8a1.84,1.84,0,0,0,.77-.1.63.63,0,0,0,.28-.28,2.58,2.58,0,0,0,.08-.83V6.3a2.62,2.62,0,0,0-.08-.79.53.53,0,0,0-.29-.28,1.77,1.77,0,0,0-.76-.1V4.87H9.1a4,4,0,0,1,2.56.64,2.06,2.06,0,0,1,.27,2.93,2.59,2.59,0,0,1-1.36.77A9.37,9.37,0,0,1,8.59,9.33Zm0-4V8.85h.3A1.48,1.48,0,0,0,10,8.42a2,2,0,0,0,.39-1.35A1.92,1.92,0,0,0,10,5.74a1.58,1.58,0,0,0-1.19-.42Z" transform="translate(0 0)"/><path class="cls-2" d="M20.56,10.17,20.25,13H13.1V12.8h.27a1.13,1.13,0,0,0,.57-.12.63.63,0,0,0,.23-.28,2.88,2.88,0,0,0,.06-.83V10.05L13.1,11v-.57l1.08-.88V6.35a3.42,3.42,0,0,0-.08-.84.64.64,0,0,0-.26-.28,1.08,1.08,0,0,0-.53-.11H13.1V4.87h4.33v.26H17a.92.92,0,0,0-.6.15.68.68,0,0,0-.24.36v2.3l1.4-1.09V7.4L16.1,8.51v3a2.58,2.58,0,0,0,.08.83.48.48,0,0,0,.29.25,4.45,4.45,0,0,0,.73,0h.66a2.18,2.18,0,0,0,1.5-.53,3.72,3.72,0,0,0,.95-1.87Z" transform="translate(0 0)"/><path class="cls-2" d="M26.1,10.7H23.25l-.34.8a1.79,1.79,0,0,0-.17.65.56.56,0,0,0,.28.51,2.45,2.45,0,0,0,.8.14V13H21.1V12.8a1.19,1.19,0,0,0,.72-.36,4.83,4.83,0,0,0,.7-1.23L25.43,4.7h.12l2.94,6.69a4.21,4.21,0,0,0,.69,1.2,1,1,0,0,0,.58.21V13h-4V12.8h.16a1.21,1.21,0,0,0,.67-.13.31.31,0,0,0,.13-.28.81.81,0,0,0,0-.22s-.07-.19-.18-.45Zm-.2-.44L24.71,7.45l-1.25,2.81Z" transform="translate(0 0)"/><path class="cls-2" d="M38.1,4.68V7.51h-.24a3,3,0,0,0-1-1.7,2.58,2.58,0,0,0-1.64-.59,2.42,2.42,0,0,0-1.4.44,2.5,2.5,0,0,0-.93,1.15,5.27,5.27,0,0,0-.38,2,6.45,6.45,0,0,0,.28,2,2.66,2.66,0,0,0,.86,1.36,2.45,2.45,0,0,0,1.53.46,3.15,3.15,0,0,0,1.41-.34,4.7,4.7,0,0,0,1.35-1.16v.7a4,4,0,0,1-3.16,1.36,4.93,4.93,0,0,1-2.32-.52,3.69,3.69,0,0,1-1.57-1.51,4.2,4.2,0,0,1-.55-2.08A4.34,4.34,0,0,1,31,6.86,4.28,4.28,0,0,1,32.6,5.24a4.5,4.5,0,0,1,2.21-.58A5.13,5.13,0,0,1,36.62,5a2.54,2.54,0,0,0,.71.22.47.47,0,0,0,.33-.14.67.67,0,0,0,.18-.45Zm-1.54-2.6-2,2.09H34.1l.7-2.09Z" transform="translate(0 0)"/><path class="cls-2" d="M49.4,4.87l-4.79,7.7h1.55a6.14,6.14,0,0,0,1.54-.14,2.54,2.54,0,0,0,1.23-.8,3.12,3.12,0,0,0,.72-1.55h.23L49.55,13H42.1l4.8-7.71H45.67a4.71,4.71,0,0,0-.92,0,2.07,2.07,0,0,0-.79.31,1.9,1.9,0,0,0-.62.61,3.28,3.28,0,0,0-.38,1h-.22L43,4.84Z" transform="translate(0 0)"/></svg>