<svg id="Warstwa_1" data-name="Warstwa 1" xmlns="http://www.w3.org/2000/svg" viewBox="0 0 184.04 13.57"><defs><style>.cls-1{fill:#323e48;}</style></defs><title>69</title><path class="cls-1" d="M12.63,27.57H9.34L4.92,14.43h2.8l2.54,7.86c.25.88.56,2,.77,2.92h0c.22-.89.51-2,.8-3l2.55-7.82H17Z" transform="translate(-4.92 -14.22)"/><path class="cls-1" d="M24,27.78c-3.95,0-6-2.41-6-6.54,0-4.55,3-7,6.44-7,3.95,0,6,2.41,6,6.54C30.47,25.31,27.51,27.78,24,27.78Zm.2-11.29c-2.07,0-3.53,1.56-3.53,4.44s1.17,4.58,3.53,4.58c2.06,0,3.54-1.56,3.54-4.46S26.59,16.49,24.22,16.49Z" transform="translate(-4.92 -14.22)"/><path class="cls-1" d="M33.32,27.57V14.43h2.53V25.37h4.26v2.2Z" transform="translate(-4.92 -14.22)"/><path class="cls-1" d="M49.2,27.57,45,21.26v6.31H42.45V14.43H45v6l4.24-6H52.3l-4.81,6.31,5,6.83Z" transform="translate(-4.92 -14.22)"/><path class="cls-1" d="M61,16.69a7.38,7.38,0,0,0-2.3-.37c-1.46,0-2.16.58-2.16,1.52,0,2.39,5.66,1.57,5.66,5.86,0,2.37-1.81,4.08-5.08,4.08a12.66,12.66,0,0,1-3-.35L54.33,25a8.08,8.08,0,0,0,2.92.58c1.28,0,2.24-.48,2.24-1.63,0-2.49-5.61-1.58-5.61-5.86,0-2.3,1.81-3.87,5-3.87a12.08,12.08,0,0,1,2.37.25Z" transform="translate(-4.92 -14.22)"/><path class="cls-1" d="M78,27.57H74.85l-2-7.18a20.56,20.56,0,0,1-.43-2.4h0a23.87,23.87,0,0,1-.41,2.4l-2,7.18H66.85L63.56,14.43h2.71L68,21.61c.25,1.23.43,2.28.56,3.27h0a28.53,28.53,0,0,1,.63-3.23l2-7.22h2.53l2,7.3a27.84,27.84,0,0,1,.68,3.15h0c.13-1,.29-2.08.5-3.11l1.74-7.34h2.49Z" transform="translate(-4.92 -14.22)"/><path class="cls-1" d="M90.92,27.57l-.9-2.8H85.08l-.92,2.8H81.61L86,14.43H89.3l4.42,13.14ZM88.1,18.65c-.22-.68-.39-1.34-.53-2h0c-.13.62-.31,1.3-.5,1.94l-1.37,4.13h3.8Z" transform="translate(-4.92 -14.22)"/><path class="cls-1" d="M106.07,27a12.51,12.51,0,0,1-4.5.81c-4.32,0-6.63-2.45-6.63-6.36,0-4.26,2.55-7.16,7.3-7.16a12.63,12.63,0,0,1,3.71.56l-.5,2.32a8.84,8.84,0,0,0-3.37-.63c-3.12,0-4.4,2.09-4.4,4.58,0,2.78,1.46,4.42,4.19,4.42a5.48,5.48,0,0,0,1.67-.24V20.68h2.53Z" transform="translate(-4.92 -14.22)"/><path class="cls-1" d="M109.52,27.57V14.43H117v2.12h-4.91v3.23h4.5v2.07h-4.5v3.54H117v2.18Z" transform="translate(-4.92 -14.22)"/><path class="cls-1" d="M127.85,27.57l-4.15-7.38a22.12,22.12,0,0,1-1.17-2.57c.08,1.15.14,4.32.14,6.25v3.7h-2.44V14.43h3.35l4,7.07a17.18,17.18,0,0,1,1.09,2.39c-.08-1.32-.13-4.32-.13-6.15V14.43h2.43V27.57Z" transform="translate(-4.92 -14.22)"/><path class="cls-1" d="M139.47,14.45s2.07-.1,4-.1c3.16,0,4.73,1.19,4.73,3.35a3,3,0,0,1-1.9,2.86v0a2.94,2.94,0,0,1,2.35,3c0,2-1.55,4.07-5.33,4.07-.9,0-2.22,0-3.88,0ZM142,19.88c.32,0,.65,0,1.13,0,1.66,0,2.44-.7,2.44-1.83s-.59-1.71-2.24-1.71c-.45,0-.92,0-1.33,0Zm0,5.65c.32,0,1,0,1.43,0,1.73,0,2.53-.79,2.53-1.92s-.8-1.87-2.77-1.87c-.23,0-.91,0-1.19,0Z" transform="translate(-4.92 -14.22)"/><path class="cls-1" d="M159.3,27.57l-.9-2.8h-4.94l-.92,2.8H150l4.4-13.14h3.29l4.42,13.14Zm-2.82-8.92c-.22-.68-.39-1.34-.53-2h0c-.14.62-.31,1.3-.51,1.94L154,22.76h3.8Z" transform="translate(-4.92 -14.22)"/><path class="cls-1" d="M171.9,27.57l-4.15-7.38a26.08,26.08,0,0,1-1.17-2.57c.08,1.15.14,4.32.14,6.25v3.7h-2.43V14.43h3.35l4,7.07a17.18,17.18,0,0,1,1.09,2.39c-.08-1.32-.14-4.32-.14-6.15V14.43H175V27.57Z" transform="translate(-4.92 -14.22)"/><path class="cls-1" d="M185.63,27.57l-4.23-6.31v6.31h-2.53V14.43h2.53v6l4.25-6h3.07l-4.81,6.31L189,27.57Z" transform="translate(-4.92 -14.22)"/></svg>