<svg xmlns="http://www.w3.org/2000/svg" viewBox="0 0 100.36 38.24"><path d="M54.93 30.83a2.65 2.65 0 0 1-1.43 2.37 2.68 2.68 0 0 1 1.43 2.38 2.57 2.57 0 0 1-.78 1.89 2.61 2.61 0 0 1-1.88.77H40.12V28.12h12.15a2.66 2.66 0 0 1 2.66 2.67zm-2.66 2.08a2 2 0 0 0 1.47-.61 2.1 2.1 0 0 0 0-2.94 2 2 0 0 0-1.47-.61H40.7v4.16zm1.47 4.13a2.1 2.1 0 0 0 0-2.94 2 2 0 0 0-1.47-.61H40.7v4.16h11.56a2 2 0 0 0 1.47-.61zm12.5-9.1a3.6 3.6 0 0 1 3.57 3.57v6.72H59.14a2.65 2.65 0 0 1-2-.81 2.78 2.78 0 0 1 0-3.92 2.66 2.66 0 0 1 2-.82H69v-1.17a2.75 2.75 0 0 0-2.76-2.76h-9.9v-.8zm2.76 9.5v-4h-9.86a1.93 1.93 0 0 0-1.41.59 2 2 0 0 0-.57 1.41 1.92 1.92 0 0 0 .57 1.4 2 2 0 0 0 1.41.57zm12.6-9.5a3.57 3.57 0 0 1 3.57 3.57v6.72h-.82v-6.72a2.67 2.67 0 0 0-.82-2 2.72 2.72 0 0 0-2-.8h-9.08v9.48h-.8V27.95zm6.07 10.3h-.6V28.12h.6v7.8l11-7.76h1l-6.64 4.67 7.3 5.4h-1l-6.78-5-4.93 3.47z" fill="#4d636d"/><path d="M26.58 24.64l.6-5-3.13 2.74a20.76 20.76 0 0 1-8.17 3.94c-.15 0-6.7 1.52-11.5-.76a7.76 7.76 0 0 1-4.2-5 7 7 0 0 1 .49-4.44 8.88 8.88 0 0 1 .93-1.59 13.84 13.84 0 0 0 .58 1.29 2.7 2.7 0 0 0 2.75 1.41 10.31 10.31 0 0 0 4.37-1 24.25 24.25 0 0 0 4.69-3 13.46 13.46 0 0 0 2.76-3.53 3.15 3.15 0 0 0 .32-1.39 1.85 1.85 0 0 0-.4-1.19 4.17 4.17 0 0 0-.81-.88 9 9 0 0 0-1-.56 16.52 16.52 0 0 1 1.74-.37 16.94 16.94 0 0 1 2.37-.19 4.25 4.25 0 0 1 2.17 1 3.8 3.8 0 0 1 1.22 1.85 4.59 4.59 0 0 1-.51 2.57 18.12 18.12 0 0 1-1.34 2.48 22.22 22.22 0 0 1-5.53 5.38 22.34 22.34 0 0 1-3.24 2 6.13 6.13 0 0 0-1.56.84 1.06 1.06 0 0 0-.19.83 1.13 1.13 0 0 0 .91.77 22.58 22.58 0 0 0 5 0 18.89 18.89 0 0 0 6.58-2.44c4.86-2.95 5.23-5.74 5.23-5.74l.85-7.1h2.1a1.46 1.46 0 0 1 1 .32 1.27 1.27 0 0 1 .36 1l-.04 2.24a9.2 9.2 0 0 1 2.87-2.84 6.22 6.22 0 0 1 3.25-.94 4.36 4.36 0 0 1 1.72.34 3.68 3.68 0 0 1 1.32 1 4.63 4.63 0 0 1 .84 1.61 7.25 7.25 0 0 1 .3 2.19v.64l-.06.67-1.3 10.85h-4.1l.57-4.75.38-3.24.36-3.12c.03-.25 0-.42 0-.5v-.2a2.58 2.58 0 0 0-.39-1.59 1.54 1.54 0 0 0-1.25-.49 2.92 2.92 0 0 0-1.41.4 5.48 5.48 0 0 0-1.39 1.13 8.24 8.24 0 0 0-1.21 1.76 11.17 11.17 0 0 0-.9 2.28l-.93 8.36zm17.55-17h3.35a1 1 0 0 1 .68.21 1 1 0 0 1 .33.55l1.8 9.1a12.89 12.89 0 0 1 .23 1.64l.12 1.6.5-1.6c.18-.53.4-1.07.66-1.63l4.06-9.1a1.35 1.35 0 0 1 .49-.57 1.16 1.16 0 0 1 .67-.21h3.23l-8.4 17h-3.5zm17.1 5.24a8.16 8.16 0 0 1 1.69-2.84 7 7 0 0 1 2.54-1.72 8.36 8.36 0 0 1 3.15-.58 7.85 7.85 0 0 1 2.54.36 4.74 4.74 0 0 1 1.71 1 3.84 3.84 0 0 1 1 1.49 5.34 5.34 0 0 1 .31 1.86 4.3 4.3 0 0 1-.66 2.27 6 6 0 0 1-1.91 1.89 10.6 10.6 0 0 1-3 1.29 15.81 15.81 0 0 1-4 .52 8 8 0 0 0 .32 1.44 3.48 3.48 0 0 0 .63 1.19 2.76 2.76 0 0 0 1.07.82 4.07 4.07 0 0 0 1.71.26 8 8 0 0 0 1.56-.17 12.15 12.15 0 0 0 1.53-.4l1.62-.6 1 2.35a14.17 14.17 0 0 1-1.86.76 14.9 14.9 0 0 1-2 .53 11.46 11.46 0 0 1-2.39.24 8.48 8.48 0 0 1-3.28-.58 5.63 5.63 0 0 1-2.18-1.61 6.56 6.56 0 0 1-1.31-2.53 12.7 12.7 0 0 1-.4-3.32 11.43 11.43 0 0 1 .61-3.93zm5.28-2a3.72 3.72 0 0 0-1.18 1.25 6.1 6.1 0 0 0-.61 1.82 13.84 13.84 0 0 0-.22 2 10.22 10.22 0 0 0 2.71-.42 5.8 5.8 0 0 0 1.8-.86 3.26 3.26 0 0 0 1-1.11 2.53 2.53 0 0 0 .32-1.19 2.17 2.17 0 0 0-.56-1.55 2 2 0 0 0-1.5-.58 3 3 0 0 0-1.76.6zm9.7 13.77l3-24.64h4l-3 24.64zm14.47.26a7 7 0 0 1-2.61-.47 5.83 5.83 0 0 1-2.08-1.38 6.71 6.71 0 0 1-1.37-2.24 8.69 8.69 0 0 1-.49-3 11.75 11.75 0 0 1 .7-4.11 10.37 10.37 0 0 1 1.93-3.3 9 9 0 0 1 2.84-2.27 7.79 7.79 0 0 1 3.47-.8 7.16 7.16 0 0 1 2.61.47 5.9 5.9 0 0 1 2.08 1.39 6.48 6.48 0 0 1 1.38 2.24 8.64 8.64 0 0 1 .49 3 11.42 11.42 0 0 1-.71 4.09 10.55 10.55 0 0 1-1.93 3.3 9 9 0 0 1-2.85 2.31 7.78 7.78 0 0 1-3.46.77zm.36-3.15a3.08 3.08 0 0 0 1.86-.59 5.16 5.16 0 0 0 1.42-1.57 8.36 8.36 0 0 0 .9-2.3 11.7 11.7 0 0 0 .32-2.75 5.23 5.23 0 0 0-.71-3.05 2.43 2.43 0 0 0-2.13-1 3.16 3.16 0 0 0-1.86.58 4.9 4.9 0 0 0-1.41 1.57 8.75 8.75 0 0 0-.89 2.31 11.81 11.81 0 0 0-.32 2.77 5.23 5.23 0 0 0 .7 3 2.42 2.42 0 0 0 2.12 1.03z" fill="#e12228"/><ellipse cx="49.86" cy="13.27" rx="3.54" ry="1.67" transform="matrix(.834271 -.551355 .551355 .834271 -39.71 27.81)" fill="#112346"/></svg>
