<svg id="Warstwa_1" data-name="Warstwa 1" xmlns="http://www.w3.org/2000/svg" viewBox="0 0 76.43 33.19"><defs><style>.cls-1{isolation:isolate;}.cls-2{fill:#02523f;}</style></defs><title>143 SGB PBL</title><g class="cls-1"><g class="cls-1"><path class="cls-2" d="M20.91,4.29a9,9,0,0,1,2.36.27,4.52,4.52,0,0,1,1.62.76,3,3,0,0,1,.93,1.2,4.21,4.21,0,0,1,.29,1.59,3.3,3.3,0,0,1-.15,1,3.35,3.35,0,0,1-.48.89,3.49,3.49,0,0,1-.82.75,4.88,4.88,0,0,1-1.17.55q3.07.65,3.07,3.26a4.08,4.08,0,0,1-.34,1.69,3.7,3.7,0,0,1-1,1.32,4.64,4.64,0,0,1-1.62.87,7,7,0,0,1-2.19.31H16.1V4.29ZM18.45,6.13v4.52H20.8A3.57,3.57,0,0,0,23,10.06a2,2,0,0,0,.75-1.67,2.06,2.06,0,0,0-.7-1.73,3.64,3.64,0,0,0-2.18-.53Zm2.91,10.76a4.32,4.32,0,0,0,1.34-.19,2.34,2.34,0,0,0,.89-.51,1.8,1.8,0,0,0,.5-.75,2.94,2.94,0,0,0,.16-.94,2,2,0,0,0-.7-1.61,3.4,3.4,0,0,0-2.2-.59h-2.9v4.59Z" transform="translate(-2.25 -3.89)"/></g><g class="cls-1"><path class="cls-2" d="M29,9.93a5.86,5.86,0,0,1,4.13-1.61,4.07,4.07,0,0,1,1.57.28,3.08,3.08,0,0,1,1.15.81,3.71,3.71,0,0,1,.72,1.24,5,5,0,0,1,.24,1.59v6.5h-1a1,1,0,0,1-.47-.09.75.75,0,0,1-.27-.39l-.21-.83a8.46,8.46,0,0,1-.78.62,4.49,4.49,0,0,1-.78.47,4.32,4.32,0,0,1-.88.29,5.41,5.41,0,0,1-1,.09,3.55,3.55,0,0,1-1.15-.17,2.47,2.47,0,0,1-.93-.51,2.56,2.56,0,0,1-.62-.86,3,3,0,0,1-.22-1.21A2.31,2.31,0,0,1,28.84,15a2.89,2.89,0,0,1,1-1,7,7,0,0,1,1.92-.74,14.4,14.4,0,0,1,2.94-.33v-.68a2.4,2.4,0,0,0-.48-1.64,1.7,1.7,0,0,0-1.38-.55,2.84,2.84,0,0,0-1,.16,4.67,4.67,0,0,0-.74.33l-.55.34A1,1,0,0,1,30,11a.62.62,0,0,1-.38-.12,1,1,0,0,1-.25-.28Zm5.72,4.34a13.84,13.84,0,0,0-2,.18,5.52,5.52,0,0,0-1.28.37,1.65,1.65,0,0,0-.71.54,1.15,1.15,0,0,0-.22.68,1.46,1.46,0,0,0,.12.62,1,1,0,0,0,.32.42,1.35,1.35,0,0,0,.48.24,2.31,2.31,0,0,0,.61.08,3.13,3.13,0,0,0,1.45-.32,4.8,4.8,0,0,0,1.18-.92Z" transform="translate(-2.25 -3.89)"/><path class="cls-2" d="M42,9.86a6.55,6.55,0,0,1,.69-.61,4,4,0,0,1,1.61-.79,3.77,3.77,0,0,1,1-.11,3.62,3.62,0,0,1,1.48.28,3,3,0,0,1,1.07.79,3.46,3.46,0,0,1,.66,1.23,5.25,5.25,0,0,1,.22,1.58v6.51H46.53V12.23a2.51,2.51,0,0,0-.47-1.61,1.78,1.78,0,0,0-1.45-.57,2.8,2.8,0,0,0-1.34.33,4.65,4.65,0,0,0-1.16.91v7.45H40V8.51h1.31a.53.53,0,0,1,.56.41Z" transform="translate(-2.25 -3.89)"/><path class="cls-2" d="M54,3.89V12.5h.46a.9.9,0,0,0,.36-.06.79.79,0,0,0,.29-.25L58,8.91a1.15,1.15,0,0,1,.33-.3.92.92,0,0,1,.46-.1h2L57.25,12.4a2.56,2.56,0,0,1-.66.62,2.15,2.15,0,0,1,.35.32,4.62,4.62,0,0,1,.29.4l3.68,5H59a1.15,1.15,0,0,1-.44-.08.78.78,0,0,1-.33-.32l-3-4A.71.71,0,0,0,55,14,1.28,1.28,0,0,0,54.5,14H54v4.77H51.81V3.89Z" transform="translate(-2.25 -3.89)"/><path class="cls-2" d="M65.49,5.42a1.29,1.29,0,0,1-.11.55,1.47,1.47,0,0,1-.32.46,1.62,1.62,0,0,1-.46.31,1.56,1.56,0,0,1-.57.11,1.46,1.46,0,0,1-.55-.11A1.4,1.4,0,0,1,63,6.43,1.62,1.62,0,0,1,62.73,6a1.34,1.34,0,0,1,0-1.11A1.49,1.49,0,0,1,63,4.4a1.4,1.4,0,0,1,.44-.31A1.3,1.3,0,0,1,64,4a1.39,1.39,0,0,1,.57.12,1.62,1.62,0,0,1,.46.31,1.36,1.36,0,0,1,.32.46A1.3,1.3,0,0,1,65.49,5.42Zm-.36,3.09V18.74H63V8.51Z" transform="translate(-2.25 -3.89)"/></g><g class="cls-1"><path class="cls-2" d="M7.93,26.7a.53.53,0,0,1-.13.16.29.29,0,0,1-.17.05.46.46,0,0,1-.26-.12L7,26.54a3.58,3.58,0,0,0-.55-.25,2.32,2.32,0,0,0-.79-.11,2.55,2.55,0,0,0-.77.11,1.73,1.73,0,0,0-.55.32,1.41,1.41,0,0,0-.34.47,1.44,1.44,0,0,0-.11.59,1.05,1.05,0,0,0,.19.66,1.71,1.71,0,0,0,.53.46,4.11,4.11,0,0,0,.73.32l.84.28a8.86,8.86,0,0,1,.85.34,2.74,2.74,0,0,1,.73.46,2.27,2.27,0,0,1,.53.69,2.32,2.32,0,0,1,.19,1,3.25,3.25,0,0,1-.21,1.18,2.59,2.59,0,0,1-.63,1,2.84,2.84,0,0,1-1,.65,3.84,3.84,0,0,1-1.36.23,4.1,4.1,0,0,1-1.7-.34,3.91,3.91,0,0,1-1.3-.91L2.62,33a.49.49,0,0,1,.13-.12.34.34,0,0,1,.17,0,.35.35,0,0,1,.2.07l.25.18.32.23a3.16,3.16,0,0,0,.41.24,2.54,2.54,0,0,0,.53.17,2.67,2.67,0,0,0,.66.07,2.57,2.57,0,0,0,.82-.12,2,2,0,0,0,.62-.36,1.75,1.75,0,0,0,.38-.55,1.88,1.88,0,0,0,.13-.72,1.19,1.19,0,0,0-.19-.71,1.69,1.69,0,0,0-.52-.47,3.58,3.58,0,0,0-.74-.31L5,30.31A7.67,7.67,0,0,1,4.11,30a2.82,2.82,0,0,1-.74-.47,2.15,2.15,0,0,1-.52-.72,2.54,2.54,0,0,1-.19-1.06,2.6,2.6,0,0,1,.19-1,2.53,2.53,0,0,1,.58-.84,2.74,2.74,0,0,1,.93-.59,3.35,3.35,0,0,1,1.27-.22,4,4,0,0,1,1.46.25,3.54,3.54,0,0,1,1.16.74Z" transform="translate(-2.25 -3.89)"/></g><g class="cls-1"><path class="cls-2" d="M11.43,29.07a3.2,3.2,0,0,1,1-.85,2.46,2.46,0,0,1,1.28-.32,2.42,2.42,0,0,1,1.06.22,2.15,2.15,0,0,1,.81.66,3.07,3.07,0,0,1,.52,1.09,5.58,5.58,0,0,1,.18,1.49,4.83,4.83,0,0,1-.2,1.4,3.26,3.26,0,0,1-.58,1.11,2.67,2.67,0,0,1-.92.75,2.77,2.77,0,0,1-1.23.27,2.3,2.3,0,0,1-1.85-.8v3h-1.2V28H11a.3.3,0,0,1,.32.24Zm.06,4.09a1.85,1.85,0,0,0,.71.62,2.05,2.05,0,0,0,.87.18,1.71,1.71,0,0,0,1.46-.67A3.15,3.15,0,0,0,15,31.36a4.75,4.75,0,0,0-.12-1.14,2.33,2.33,0,0,0-.34-.78A1.22,1.22,0,0,0,14,29a1.83,1.83,0,0,0-.73-.14,1.89,1.89,0,0,0-1,.27,3,3,0,0,0-.8.75Z" transform="translate(-2.25 -3.89)"/><path class="cls-2" d="M21.05,27.91a3.32,3.32,0,0,1,1.33.25,2.82,2.82,0,0,1,1,.7,3.09,3.09,0,0,1,.65,1.1,4.86,4.86,0,0,1,0,2.89,3.13,3.13,0,0,1-.65,1.09,2.7,2.7,0,0,1-1,.7,3.32,3.32,0,0,1-1.33.25,3.42,3.42,0,0,1-1.35-.25,2.7,2.7,0,0,1-1-.7A3.13,3.13,0,0,1,18,32.85,4.86,4.86,0,0,1,18,30a3.09,3.09,0,0,1,.65-1.1,2.82,2.82,0,0,1,1-.7A3.42,3.42,0,0,1,21.05,27.91Zm0,6.05a1.72,1.72,0,0,0,1.49-.68,3.08,3.08,0,0,0,.5-1.87,3.15,3.15,0,0,0-.5-1.89,1.72,1.72,0,0,0-1.49-.67,2.05,2.05,0,0,0-.89.17,1.71,1.71,0,0,0-.63.5,2.16,2.16,0,0,0-.37.81A4,4,0,0,0,19,31.41a3.08,3.08,0,0,0,.5,1.87A1.77,1.77,0,0,0,21.05,34ZM23,25.1l-1.56,1.73a.73.73,0,0,1-.18.14A.53.53,0,0,1,21,27h-.71l1-1.62a.72.72,0,0,1,.2-.22.58.58,0,0,1,.33-.07Z" transform="translate(-2.25 -3.89)"/><path class="cls-2" d="M29.18,28.05v.68A.29.29,0,0,1,29,29l-1.08.47v5.3H26.73V29.93l-1.21.53v-.7a.29.29,0,0,1,.17-.27l1-.47V24.94h1.19v3.64Z" transform="translate(-2.25 -3.89)"/><path class="cls-2" d="M36.31,24.94v9.85H35.6a.3.3,0,0,1-.32-.24l-.11-.83a3.79,3.79,0,0,1-1,.85,2.53,2.53,0,0,1-1.28.32,2.46,2.46,0,0,1-1.06-.23A2.32,2.32,0,0,1,31,34a3.19,3.19,0,0,1-.51-1.08,5.58,5.58,0,0,1-.18-1.49,4.51,4.51,0,0,1,.2-1.4,3.38,3.38,0,0,1,.57-1.12,2.67,2.67,0,0,1,2.15-1,2.49,2.49,0,0,1,1.07.21,2.6,2.6,0,0,1,.79.58V24.94Zm-1.19,4.69A1.91,1.91,0,0,0,34.4,29a2,2,0,0,0-.87-.17,1.7,1.7,0,0,0-1.45.67,3.15,3.15,0,0,0-.51,1.93,5.2,5.2,0,0,0,.11,1.13,2.16,2.16,0,0,0,.34.78,1.27,1.27,0,0,0,.54.44,1.7,1.7,0,0,0,.73.14,2,2,0,0,0,1-.26,2.86,2.86,0,0,0,.8-.76Z" transform="translate(-2.25 -3.89)"/><path class="cls-2" d="M43.28,28.52a.7.7,0,0,1-.05.25,1,1,0,0,1-.11.21l-3.68,4.88h3.71v.93H38V34.3a.63.63,0,0,1,.05-.21.6.6,0,0,1,.12-.22L41.9,29H38.25V28h5Z" transform="translate(-2.25 -3.89)"/><path class="cls-2" d="M46.56,25.89a.68.68,0,0,1-.07.32,1,1,0,0,1-.19.27.88.88,0,0,1-.27.19,1,1,0,0,1-.33.06.88.88,0,0,1-.33-.06.83.83,0,0,1-.26-.19.8.8,0,0,1-.18-.27.68.68,0,0,1-.07-.32.72.72,0,0,1,.07-.33.75.75,0,0,1,.18-.28.81.81,0,0,1,.26-.18A.72.72,0,0,1,45.7,25a.78.78,0,0,1,.33.07.85.85,0,0,1,.27.18.92.92,0,0,1,.19.28A.72.72,0,0,1,46.56,25.89ZM46.31,28v6.77H45.12V28Z" transform="translate(-2.25 -3.89)"/><path class="cls-2" d="M54.16,33.84a2.18,2.18,0,0,1-.53.47,2.88,2.88,0,0,1-.66.32,3.47,3.47,0,0,1-.72.19,3.81,3.81,0,0,1-.75.07,3.4,3.4,0,0,1-1.29-.24,2.78,2.78,0,0,1-1-.7,3.25,3.25,0,0,1-.68-1.13,4.63,4.63,0,0,1-.24-1.55,4.12,4.12,0,0,1,.22-1.33,3,3,0,0,1,.63-1.06,2.73,2.73,0,0,1,1-.71,3.36,3.36,0,0,1,1.33-.26,3.24,3.24,0,0,1,1.13.2,2.71,2.71,0,0,1,.89.59,2.78,2.78,0,0,1,.59.95,3.49,3.49,0,0,1,.22,1.29.74.74,0,0,1-.06.37.24.24,0,0,1-.23.1H49.45a3.7,3.7,0,0,0,.18,1.12,2.16,2.16,0,0,0,.44.79,1.67,1.67,0,0,0,.67.47,2.14,2.14,0,0,0,.87.16,2.57,2.57,0,0,0,.77-.1,4.32,4.32,0,0,0,.56-.23l.39-.22a.48.48,0,0,1,.27-.1.26.26,0,0,1,.23.11Zm-1-3.17a2.29,2.29,0,0,0-.12-.76,1.77,1.77,0,0,0-.34-.6,1.45,1.45,0,0,0-.55-.39,2.11,2.11,0,0,0-2.08.36,2.39,2.39,0,0,0-.62,1.39Z" transform="translate(-2.25 -3.89)"/><path class="cls-2" d="M57.36,24.94v9.85H56.17V24.94Z" transform="translate(-2.25 -3.89)"/><path class="cls-2" d="M64.4,29.22a.36.36,0,0,1-.1.11.24.24,0,0,1-.15,0,.35.35,0,0,1-.22-.08,3.38,3.38,0,0,0-.3-.18,2.31,2.31,0,0,0-.44-.19,2.25,2.25,0,0,0-.63-.08,2,2,0,0,0-.88.18,1.67,1.67,0,0,0-.64.51,2.35,2.35,0,0,0-.39.81,4.27,4.27,0,0,0-.13,1.06,4.08,4.08,0,0,0,.14,1.1,2.61,2.61,0,0,0,.4.8,1.73,1.73,0,0,0,.62.49,1.85,1.85,0,0,0,.82.17,2.12,2.12,0,0,0,.72-.1,2.18,2.18,0,0,0,.46-.23A3.58,3.58,0,0,0,64,33.4a.36.36,0,0,1,.24-.1.25.25,0,0,1,.23.11l.34.43a2.45,2.45,0,0,1-.5.47,3.25,3.25,0,0,1-.61.33,3.79,3.79,0,0,1-.68.19,4.37,4.37,0,0,1-.72.06,2.9,2.9,0,0,1-1.18-.24,2.56,2.56,0,0,1-1-.68,3.07,3.07,0,0,1-.63-1.09,4.51,4.51,0,0,1-.23-1.48,4.24,4.24,0,0,1,.22-1.4,3.19,3.19,0,0,1,.61-1.1,2.73,2.73,0,0,1,1-.73,3.4,3.4,0,0,1,1.36-.26,3.26,3.26,0,0,1,1.26.23,3,3,0,0,1,1,.65Z" transform="translate(-2.25 -3.89)"/></g><g class="cls-1"><path class="cls-2" d="M71.39,28.52a.69.69,0,0,1,0,.25.72.72,0,0,1-.12.21l-3.67,4.88h3.7v.93h-5.1V34.3a.59.59,0,0,1,0-.21,1.19,1.19,0,0,1,.12-.22L70,29H66.37V28h5Z" transform="translate(-2.25 -3.89)"/></g><g class="cls-1"><path class="cls-2" d="M78.57,33.84a2.38,2.38,0,0,1-.53.47,3.35,3.35,0,0,1-.66.32,4.68,4.68,0,0,1-1.47.26,3.37,3.37,0,0,1-1.29-.24,2.82,2.82,0,0,1-1-.7,3.09,3.09,0,0,1-.67-1.13,4.63,4.63,0,0,1-.24-1.55,3.87,3.87,0,0,1,.22-1.33,3,3,0,0,1,.62-1.06,2.76,2.76,0,0,1,1-.71,3.27,3.27,0,0,1,1.32-.26,3.19,3.19,0,0,1,1.13.2,2.54,2.54,0,0,1,1.49,1.54,3.71,3.71,0,0,1,.21,1.29.74.74,0,0,1-.06.37.23.23,0,0,1-.22.1H73.86A4.06,4.06,0,0,0,74,32.53a2.32,2.32,0,0,0,.44.79,1.74,1.74,0,0,0,.67.47A2.21,2.21,0,0,0,76,34a2.48,2.48,0,0,0,.77-.1,3.4,3.4,0,0,0,.56-.23,3.19,3.19,0,0,0,.39-.22.53.53,0,0,1,.27-.1.25.25,0,0,1,.23.11Zm-1-3.17a2.58,2.58,0,0,0-.11-.76,1.79,1.79,0,0,0-.35-.6,1.42,1.42,0,0,0-.54-.39,1.86,1.86,0,0,0-.73-.13,1.82,1.82,0,0,0-1.35.49,2.33,2.33,0,0,0-.62,1.39Z" transform="translate(-2.25 -3.89)"/></g></g></svg>