<svg xmlns="http://www.w3.org/2000/svg" width="130" height="25" fill="#279d38" fill-rule="evenodd"><path d="M7.7 5.67L3.304 3.15c-.317.344-.606.702-.882 1.087L7.7 7.268 19.032.743A13.47 13.47 0 0 0 17.557 0L7.7 5.67zm0 3.18L1.654 5.396c-.234.4-.44.812-.62 1.24l6.642 3.813 13.74-7.887a12.09 12.09 0 0 0-1.116-.95L7.7 8.85zm0 3.18L.565 7.928l-.235.867-.1.523 7.47 4.308 15.53-8.92c-.028-.04-.055-.083-.083-.1l-.234-.344-.386-.5-.124-.15L7.7 12.03zm0 3.18L.028 10.805l-.028.77c0 .785.07 1.583.207 2.354.276 1.473.786 2.85 1.516 4.074.9 1.555 2.15 2.9 3.597 3.923a13.19 13.19 0 0 0 3.183 1.652 11.82 11.82 0 0 0 1.364.385 12.29 12.29 0 0 0 2.77.303l.606-.014.992-.083a12.72 12.72 0 0 0 4.768-1.61 12.08 12.08 0 0 0 2.04-1.487 13.14 13.14 0 0 0 1.902-2.106 12.52 12.52 0 0 0 2.11-4.886l.124-.716a11.9 11.9 0 0 0 .124-1.721v-.18a12.217 12.217 0 0 0-.152-1.72 12.62 12.62 0 0 0-1.24-3.854L7.7 15.2zm117.58-4.837c.936 1.3 3.083 4.2 4.652 5.775h-4.445c-.317-.698-.798-1.847-2.175-3.914l-2-2.997 1.748-2.244c1.046-1.34 2.38-3.12 2.753-4.023h3.1v.014c-1.252.712-3.344 2.82-3.95 3.476l-1.376 1.464 1.693 2.45zm-7.047-5.925c0-.712-.096-.903-.757-1.054v-.4h4.35v.4c-.66.15-.757.342-.757 1.054v10.236c0 .712.096.903.757 1.054v.4h-4.35v-.4c.66-.15.757-.342.757-1.054V4.447zm-12.607.903v9.333c0 .712.193.903.95 1.054v.4h-3.22v-.4c.757-.15.95-.342.95-1.054V4.447c0-.712-.206-.958-.95-1.054v-.4h4.033c.3.493.798 1.3 2 3l4 5.474v-7.02c0-.712-.193-.903-.95-1.054v-.4h3.22v.4c-.757.15-.95.342-.95 1.054v11.8h-1.252l-7.83-10.906zm-8.217 5.16L95.62 5.2l-1.83 5.3h3.62zm1.734 5.638c-.1-.712-.523-2.04-.895-3.093l-.564-1.67h-4.198l-.922 3.147-.3 1.615h-2.4c.317-.506.922-1.67 1.83-3.873l2.45-5.98c.55-1.34.647-1.752.647-2.135 0-.26-.083-.616-.757-.766v-.4h3.785c.055.397.096.848.495 1.957l2.78 7.882c.55 1.546 1.142 2.86 1.418 3.325H99.14zM82.5 9.36v4.872c0 .848.165 1.095 1.115 1.095h.5c1.528 0 2.38-.958 2.38-3 0-1.97-.743-2.956-2.835-2.956H82.5zm0-.835h1.252c1.528 0 2.326-.547 2.326-2.313s-.757-2.408-2.216-2.408h-.55c-.702 0-.812.205-.812.766v3.955zm1.514-5.556c2.63 0 4.94.3 4.94 3 0 1.847-1.252 2.64-2.684 2.915 1.72.1 3.166 1.3 3.166 3.27 0 3.243-2.202 3.968-5.505 3.968h-5v-.4c.66-.15.757-.342.757-1.054V4.447c0-.712-.096-.903-.757-1.054v-.4h5.092V2.97zM71.328 9.264c1.83 0 2.367-.944 2.367-2.75 0-1.902-.853-2.7-2.106-2.7h-.633c-.564 0-.826.096-.826.712v4.748h1.197zm6.33 6.883h-3.633c-.22-.698-1.252-3.353-1.624-4.297l-.716-1.765H70.13v4.598c0 .712.096.903.757 1.054v.4h-4.35v-.4c.66-.15.757-.342.757-1.054V4.447c0-.712-.096-.903-.757-1.054v-.4h5.285c2.835 0 4.803.684 4.803 3.462 0 1.916-1.115 2.82-2.326 3.257l3.358 6.445zM59.45 3.804c-.564 0-.66.15-.66.602v4.078h1.762c.743 0 1.9-.068 2.353-.397v1.656c-.454-.315-1.6-.397-2.353-.397H58.8v4.913c0 .794.317 1.054 2.064 1.054h.372c1.72 0 2.175-.1 2.56-1.752l.1-.493h.84v3.065h-9.538v-.4c.66-.15.757-.342.757-1.054V4.447c0-.712-.096-.903-.757-1.054v-.4h9.235v2.86h-.716l-.165-.547c-.413-1.355-.895-1.492-2.615-1.492H59.45zM46.527 9.36v4.872c0 .848.165 1.095 1.115 1.095h.5c1.528 0 2.38-.958 2.38-3 0-1.97-.743-2.956-2.835-2.956h-1.17zm0-.835h1.252c1.528 0 2.326-.547 2.326-2.313s-.757-2.408-2.216-2.408h-.55c-.702 0-.812.205-.812.766v3.955zM48.04 2.97c2.63 0 4.94.3 4.94 3 0 1.847-1.252 2.64-2.684 2.915 1.72.1 3.166 1.3 3.166 3.27 0 3.243-2.202 3.968-5.505 3.968h-5.024v-.4c.66-.15.757-.342.757-1.054V4.447c0-.712-.096-.903-.757-1.054v-.4h5.106V2.97zm-12.566 7.266c-1.46-.547-3.166-1.34-3.166-3.695 0-2.2 1.514-3.818 5.106-3.818 2.078 0 3.207.465 3.578.616V5.9h-.73l-.234-.643c-.344-.958-.922-1.67-2.464-1.67-1.982 0-2.615.944-2.615 2.066 0 1.204.592 1.642 1.872 2.12l1.817.684c1.968.74 2.987 1.806 2.987 3.873 0 1.957-1.32 4.064-5.3 4.064-2.078 0-3.482-.452-3.867-.602v-2.846h.84l.22.917c.26.985.908 1.656 2.7 1.656 1.68 0 2.684-.835 2.684-2.313 0-1.108-.523-1.902-1.68-2.34l-1.762-.63z" fill-rule="nonzero"></path><path d="M32.475 19.445h97.457v1.314H32.475z"></path></svg>
